<svg xmlns="http://www.w3.org/2000/svg" xmlns:xlink="http://www.w3.org/1999/xlink" preserveAspectRatio="xMidYMid" width="16" height="18" viewBox="0 0 16 18">
  <path d="M16.000,9.000 C16.000,9.531 15.859,10.343 15.218,11.165 C15.234,11.145 15.257,11.126 15.271,11.106 C15.873,11.907 16.000,12.694 16.000,13.212 C16.000,14.092 15.636,15.744 13.199,16.931 C11.783,17.620 9.937,18.000 8.000,18.000 C6.063,18.000 4.217,17.620 2.801,16.931 C0.364,15.744 0.000,14.092 0.000,13.212 C0.000,12.694 0.127,11.907 0.729,11.106 C0.744,11.126 0.767,11.146 0.783,11.166 C0.142,10.344 0.000,9.531 0.000,9.000 C0.000,8.482 0.127,7.695 0.729,6.894 C0.744,6.914 0.767,6.934 0.783,6.954 C0.142,6.132 0.000,5.319 0.000,4.788 C0.000,3.908 0.364,2.256 2.801,1.069 C4.217,0.380 6.063,-0.000 8.000,-0.000 C9.937,-0.000 11.783,0.380 13.199,1.069 C15.636,2.256 16.000,3.908 16.000,4.788 C16.000,5.319 15.859,6.132 15.218,6.953 C15.233,6.933 15.257,6.914 15.271,6.894 C15.873,7.695 16.000,8.482 16.000,9.000 ZM8.000,16.315 C11.521,16.315 14.374,14.926 14.374,13.212 C14.374,12.870 14.259,12.541 14.049,12.234 C14.088,12.208 14.113,12.180 14.151,12.154 C13.872,12.350 13.565,12.541 13.199,12.719 C11.783,13.409 9.937,13.788 8.000,13.788 C6.063,13.788 4.217,13.409 2.801,12.719 C2.433,12.540 2.126,12.348 1.846,12.152 C1.885,12.179 1.911,12.207 1.951,12.234 C1.741,12.541 1.626,12.870 1.626,13.212 C1.626,14.926 4.480,16.315 8.000,16.315 ZM8.000,12.103 C11.521,12.103 14.374,10.714 14.374,9.000 C14.374,8.658 14.259,8.330 14.049,8.022 C14.088,7.996 14.114,7.968 14.151,7.942 C13.872,8.137 13.566,8.329 13.199,8.507 C11.783,9.197 9.937,9.576 8.000,9.576 C6.063,9.576 4.217,9.197 2.801,8.507 C2.433,8.328 2.125,8.136 1.846,7.939 C1.884,7.966 1.910,7.995 1.951,8.022 C1.741,8.330 1.626,8.658 1.626,9.000 C1.626,10.714 4.480,12.103 8.000,12.103 ZM1.287,7.499 C1.219,7.436 1.165,7.373 1.104,7.310 C1.165,7.373 1.218,7.436 1.287,7.499 ZM8.000,1.685 C4.480,1.685 1.626,3.074 1.626,4.788 C1.626,6.502 4.480,7.892 8.000,7.892 C11.521,7.892 14.374,6.502 14.374,4.788 C14.374,3.074 11.521,1.685 8.000,1.685 ZM14.714,7.499 C14.781,7.437 14.833,7.375 14.894,7.312 C14.833,7.374 14.781,7.437 14.714,7.499 Z"/>
</svg>
