<svg xmlns="http://www.w3.org/2000/svg" xmlns:xlink="http://www.w3.org/1999/xlink" preserveAspectRatio="xMidYMid" width="67" height="36.344" viewBox="0 0 67 36.344">
  <defs>
    <style>
      .cls-1 {
        fill: #0a92ea;
        fill-rule: evenodd;
      }
    </style>
  </defs>
  <path d="M66.041,31.462 L35.342,0.906 C34.384,-0.321 32.768,-0.321 31.658,0.906 L0.959,31.462 C-0.659,33.250 -0.231,36.350 2.187,36.350 L24.000,31.906 L32.000,31.906 L32.000,22.906 C30.780,22.906 27.974,20.261 27.974,17.406 C27.974,14.551 30.532,11.911 33.456,11.911 C36.380,11.911 39.026,14.461 39.026,17.406 C39.026,20.351 36.259,22.906 35.000,22.906 L35.000,31.906 L43.000,31.906 L64.813,36.350 C67.232,36.350 67.659,33.250 66.041,31.462 Z" class="cls-1"/>
</svg>
