<svg xmlns="http://www.w3.org/2000/svg" xmlns:xlink="http://www.w3.org/1999/xlink" preserveAspectRatio="xMidYMid" width="18" height="18" viewBox="0 0 18 18">
  <path d="M15.254,13.486 C15.108,13.633 14.916,13.706 14.724,13.706 C14.532,13.706 14.340,13.633 14.193,13.486 C13.900,13.192 13.900,12.716 14.193,12.422 C15.681,10.929 16.500,8.945 16.500,6.835 C16.500,4.725 15.681,2.741 14.193,1.249 C13.900,0.955 13.900,0.478 14.193,0.185 C14.486,-0.109 14.961,-0.109 15.254,0.185 C17.025,1.961 18.000,4.323 18.000,6.835 C18.000,9.347 17.025,11.709 15.254,13.486 ZM13.133,11.357 C12.986,11.504 12.794,11.578 12.602,11.578 C12.410,11.578 12.218,11.504 12.072,11.357 C11.779,11.064 11.779,10.587 12.072,10.293 C12.993,9.369 13.500,8.141 13.500,6.835 C13.500,5.529 12.993,4.301 12.072,3.377 C11.779,3.083 11.779,2.607 12.072,2.313 C12.365,2.019 12.839,2.019 13.133,2.313 C14.337,3.521 15.000,5.127 15.000,6.835 C15.000,8.543 14.337,10.149 13.133,11.357 ZM10.000,9.000 L10.000,18.000 L8.000,18.000 L8.000,9.000 C6.917,8.675 7.000,8.191 7.000,7.000 C7.000,5.548 7.553,5.000 9.000,5.000 C10.448,5.000 11.000,5.548 11.000,7.000 C11.000,8.191 11.083,8.675 10.000,9.000 ZM5.928,11.357 C5.781,11.504 5.589,11.578 5.397,11.578 C5.206,11.578 5.013,11.504 4.867,11.357 C3.663,10.149 3.000,8.543 3.000,6.835 C3.000,5.127 3.663,3.521 4.867,2.313 C5.160,2.019 5.635,2.019 5.928,2.313 C6.221,2.607 6.221,3.083 5.928,3.377 C5.007,4.300 4.500,5.529 4.500,6.835 C4.500,8.141 5.007,9.369 5.928,10.293 C6.221,10.587 6.221,11.064 5.928,11.357 ZM1.500,6.835 C1.500,8.945 2.319,10.929 3.807,12.422 C4.100,12.716 4.100,13.192 3.807,13.486 C3.660,13.633 3.468,13.706 3.276,13.706 C3.084,13.706 2.892,13.633 2.746,13.486 C0.975,11.709 0.000,9.347 0.000,6.835 C0.000,4.323 0.975,1.961 2.746,0.185 C3.039,-0.109 3.514,-0.109 3.807,0.185 C4.100,0.478 4.100,0.955 3.807,1.249 C2.319,2.741 1.500,4.725 1.500,6.835 Z"/>
</svg>
