<?xml version="1.0" encoding="utf-8"?>
<!-- Generator: Adobe Illustrator 19.1.0, SVG Export Plug-In . SVG Version: 6.00 Build 0)  -->
<svg version="1.1" id="Layer_1" xmlns="http://www.w3.org/2000/svg" xmlns:xlink="http://www.w3.org/1999/xlink" x="0px" y="0px"
	 viewBox="3.1 -3.1 30 30" style="enable-background:new 3.1 -3.1 30 30;" xml:space="preserve">
<style type="text/css">
	.st0{fill:#FFFFFF;}
	.st1{fill:#51B848;}
	.st2{fill:none;stroke:#ED1C24;stroke-width:1.5;stroke-miterlimit:10;stroke-dasharray:1;}
</style>
<circle class="st0" cx="18.1" cy="11.9" r="8.3"/>
<path class="st1" d="M18.1,23.7c-6.5,0-11.8-5.3-11.8-11.8S11.6,0.1,18.1,0.1s11.8,5.3,11.8,11.8C29.9,18.4,24.6,23.7,18.1,23.7z
	 M18.1,3.7c-4.5,0-8.2,3.7-8.2,8.2s3.7,8.2,8.2,8.2s8.2-3.7,8.2-8.2C26.3,7.3,22.6,3.7,18.1,3.7z"/>
<path class="st1" d="M22,10.5L22,10.5L22,10.5c-0.1-0.2-0.1-0.2-0.1-0.3L18.1,0.1l-3.8,10.1c-0.2,0.5-0.4,1.1-0.4,1.7
	c0,2.3,1.9,4.2,4.2,4.2s4.2-1.9,4.2-4.2C22.3,11.4,22.2,10.9,22,10.5z"/>
<path class="st0" d="M16.7,3.8c0.5-0.1,0.9-0.1,1.4-0.1s0.9,0,1.4,0.1l-1.4-3.7l0,0L16.7,3.8z"/>
<circle class="st0" cx="18.1" cy="11.9" r="1.1"/>
<g>
	<circle class="st2" cx="18.1" cy="11.9" r="14"/>
</g>
</svg>
