<?xml version="1.0" encoding="utf-8"?>
<svg version="1.1" id="Layer_1" xmlns="http://www.w3.org/2000/svg" xmlns:xlink="http://www.w3.org/1999/xlink" x="0px" y="0px"
	 viewBox="0 0 24 24" style="enable-background:new 0 0 24 24;" xml:space="preserve">
<style type="text/css">
	.st0{fill:#FFFFFF;}
	.st1{fill:#51B848;}
</style>
<circle class="st0" cx="12" cy="12" r="8.3"/>
<path class="st1" d="M12,23.8C5.5,23.8,0.2,18.5,0.2,12C0.2,5.5,5.5,0.2,12,0.2c6.5,0,11.8,5.3,11.8,11.8
	C23.8,18.5,18.5,23.8,12,23.8z M12,3.8c-4.5,0-8.2,3.7-8.2,8.2c0,4.5,3.7,8.2,8.2,8.2c4.5,0,8.2-3.7,8.2-8.2
	C20.2,7.5,16.5,3.8,12,3.8z"/>
<path class="st1" d="M16,10.6L16,10.6L16,10.6c-0.1-0.2-0.1-0.2-0.1-0.3L12,0.2L8.2,10.3c-0.2,0.5-0.4,1.1-0.4,1.7
	c0,2.3,1.9,4.2,4.2,4.2s4.2-1.9,4.2-4.2C16.2,11.5,16.1,11,16,10.6z"/>
<path class="st0" d="M10.6,3.9c0.5-0.1,0.9-0.1,1.4-0.1c0.5,0,0.9,0,1.4,0.1L12,0.2c0,0,0,0,0,0L10.6,3.9z"/>
<circle class="st0" cx="12" cy="12" r="1.1"/>
</svg>
