<svg xmlns="http://www.w3.org/2000/svg" xmlns:xlink="http://www.w3.org/1999/xlink" preserveAspectRatio="xMidYMid" width="18" height="18" viewBox="0 0 18 18">
          <defs>
              <filter id='dropshadow' >
                  <feGaussianBlur in='SourceAlpha' stdDeviation='2' result="blur"/> <!-- stdDeviation is how much to blur -->
                  <feOffset in='blur' dx='8' dy='8' result='offsetblur'/> <!-- how much to offset -->
                  <feFlood flood-color="rgba(0, 0, 0, 0.4)"></feFlood>
                  <feComposite in2="offsetblur" operator="in"></feComposite>
                  <feMerge><feMergeNode/> <!-- this contains the offset blurred image -->
                      <feMergeNode in='SourceGraphic'/> <!-- this contains the element that the filter is applied to --></feMerge>
              </filter>
          </defs>
  <path d="M9.002,18.000 C4.029,18.000 -0.001,13.971 -0.001,9.002 C-0.001,4.033 4.029,0.004 9.002,0.004 C13.974,0.004 18.004,4.033 18.004,9.002 C18.004,13.971 13.974,18.000 9.002,18.000 ZM9.000,1.000 C4.593,1.000 1.000,4.595 1.000,9.000 C1.000,13.405 4.593,17.000 9.000,17.000 C13.407,17.000 17.000,13.405 17.000,9.000 C17.000,4.595 13.407,1.000 9.000,1.000 ZM9.000,14.000 C6.426,14.000 4.000,11.573 4.000,9.000 C4.000,6.427 6.426,4.000 9.000,4.000 C11.574,4.000 14.000,6.427 14.000,9.000 C14.000,11.573 11.574,14.000 9.000,14.000 Z"/>
</svg>
