<svg xmlns="http://www.w3.org/2000/svg" xmlns:xlink="http://www.w3.org/1999/xlink" preserveAspectRatio="xMidYMid" width="45.688" height="46" viewBox="0 0 45.688 46">
  <path d="M23.223,-0.000 L22.817,0.003 C16.696,0.110 10.936,2.600 6.599,7.013 C2.231,11.457 -0.115,17.277 -0.010,23.401 C0.209,36.074 10.073,46.000 22.448,46.000 L22.852,45.997 C35.658,45.773 45.898,35.276 45.679,22.599 C45.460,9.926 35.596,-0.000 23.223,-0.000 ZM21.841,11.997 C21.841,11.445 22.286,10.997 22.835,10.997 C23.383,10.997 23.828,11.445 23.828,11.997 L23.828,25.995 C23.828,26.548 23.383,26.995 22.835,26.995 C22.286,26.995 21.841,26.548 21.841,25.995 L21.841,11.997 ZM22.870,34.994 C22.858,34.994 22.846,34.994 22.835,34.994 C21.753,34.994 20.867,34.122 20.848,33.029 C20.829,31.925 21.704,31.013 22.800,30.996 C22.812,30.996 22.824,30.995 22.836,30.995 C23.918,30.995 24.802,31.867 24.821,32.960 C24.840,34.064 23.965,34.974 22.870,34.994 Z"/>
</svg>
