<svg xmlns="http://www.w3.org/2000/svg" xmlns:xlink="http://www.w3.org/1999/xlink" preserveAspectRatio="xMidYMid" width="12" height="12" viewBox="0 0 12 12">
  <path d="M11.623,3.243 L11.444,3.422 L8.575,0.553 L8.754,0.374 C8.993,0.135 9.312,0.003 9.651,0.003 C9.989,0.003 10.307,0.135 10.547,0.374 L11.623,1.450 C12.117,1.944 12.117,2.748 11.623,3.243 ZM4.018,10.848 L1.148,7.979 L7.499,1.629 L10.368,4.498 L4.018,10.848 ZM3.589,11.222 L0.309,11.991 C0.290,11.996 0.271,11.998 0.251,11.998 C0.185,11.998 0.120,11.972 0.072,11.924 C0.010,11.862 -0.015,11.772 0.005,11.686 L0.774,8.407 C0.779,8.386 0.787,8.365 0.798,8.346 L3.651,11.199 C3.631,11.209 3.611,11.217 3.589,11.222 Z"/>
</svg>