<svg version="1.1" id="Layer_1" xmlns="http://www.w3.org/2000/svg" xmlns:xlink="http://www.w3.org/1999/xlink" x="0px" y="0px"
	 viewBox="0 0 24 24" style="enable-background:new 0 0 24 24;" xml:space="preserve">
<path d="M21.5,0.1h-1.5c-0.2,0-0.4,0.2-0.4,0.4v5.5c-0.6-0.4-1.3-0.8-2.5-0.8c-1.5,0-2.4,0.7-3,1.2
	C13.5,7,13,7.4,11.9,7.4c-1,0-1.5-0.4-2.1-0.9C9.2,6,8.3,5.3,6.8,5.3C5.7,5.3,5,5.6,4.4,6V0.5c0-0.2-0.2-0.4-0.4-0.4H2.5
	c-0.2,0-0.4,0.2-0.4,0.4v0.9v8v13.3c0.1,0.7,0.7,1.2,1.4,1.2h16.9c0.7,0,1.3-0.5,1.4-1.2V9.4v-8V0.5C21.8,0.3,21.7,0.1,21.5,0.1z
	 M3.8,12.2c0-0.8,0.6-1.4,1.4-1.4c0.8,0,1.4,0.6,1.4,1.4S6,13.6,5.2,13.6C4.4,13.6,3.8,13,3.8,12.2z M6.3,20.7
	c-0.8,0-1.4-0.6-1.4-1.4s0.6-1.4,1.4-1.4c0.8,0,1.4,0.6,1.4,1.4S7,20.7,6.3,20.7z M13.6,22.3h-3.2v-0.8h3.2V22.3z M13.6,18.2h-3.2
	v-0.8h3.2V18.2z M13.6,14h-3.2v-0.8h3.2V14z M13.6,9.9h-3.2V9.1h3.2V9.9z M16.6,9.6C17,8.9,17.9,8.7,18.5,9c0.7,0.4,0.9,1.2,0.6,1.9
	c-0.4,0.7-1.2,0.9-1.9,0.6C16.5,11.1,16.3,10.3,16.6,9.6z M18.9,21.4c-0.4,0.7-1.2,0.9-1.9,0.6c-0.7-0.4-0.9-1.2-0.6-1.9
	c0.4-0.7,1.2-0.9,1.9-0.6C19,19.9,19.2,20.7,18.9,21.4z M20.8,16.4c-0.4,0.7-1.2,0.9-1.9,0.6c-0.7-0.4-0.9-1.2-0.6-1.9
	c0.4-0.7,1.2-0.9,1.9-0.6C20.9,14.9,21.1,15.7,20.8,16.4z"/>
</svg>
