<svg xmlns="http://www.w3.org/2000/svg" xmlns:xlink="http://www.w3.org/1999/xlink" preserveAspectRatio="xMidYMid" width="14" height="23" viewBox="0 0 14 23">
  <path d="M11.118,13.239 C10.511,12.783 9.353,11.676 9.353,11.024 C9.353,10.259 9.558,9.884 10.640,8.986 C11.750,8.065 12.536,6.771 12.536,5.267 C12.536,3.474 11.784,1.728 10.373,1.152 L12.500,1.152 L14.002,-0.000 L7.291,-0.000 C4.284,-0.000 1.452,2.419 1.452,5.221 C1.452,8.085 3.503,10.397 6.563,10.397 C6.777,10.397 6.983,10.393 7.185,10.376 C6.988,10.779 6.844,11.235 6.844,11.706 C6.844,12.502 7.248,13.148 7.758,13.675 C7.372,13.675 6.999,13.687 6.595,13.687 C2.869,13.687 -0.000,16.205 -0.000,18.819 C-0.000,21.391 3.145,23.000 6.870,23.000 C11.118,23.000 13.466,20.441 13.466,17.868 C13.466,15.806 12.891,14.570 11.118,13.239 M7.534,9.670 C5.805,9.615 4.162,7.617 3.864,5.208 C3.566,2.798 4.725,0.953 6.454,1.008 C8.181,1.063 9.826,2.995 10.124,5.407 C10.422,7.816 9.263,9.726 7.534,9.670 M6.858,21.863 C4.280,21.863 2.421,20.132 2.421,18.053 C2.421,16.015 4.729,14.318 7.305,14.348 C7.905,14.356 8.465,14.457 8.974,14.632 C10.371,15.665 11.375,16.248 11.658,17.424 C11.711,17.664 11.741,17.907 11.741,18.159 C11.741,20.239 10.478,21.863 6.858,21.863 " />
</svg>
