<svg xmlns="http://www.w3.org/2000/svg" xmlns:xlink="http://www.w3.org/1999/xlink" preserveAspectRatio="xMidYMid" width="20" height="20" viewBox="0 0 20 20">
  <path d="M20.000,20.000 L15.580,20.000 L15.580,12.968 C15.580,11.128 14.888,9.873 13.368,9.873 C12.205,9.873 11.558,10.720 11.257,11.538 C11.144,11.830 11.162,12.238 11.162,12.648 L11.162,20.000 L6.783,20.000 C6.783,20.000 6.839,7.545 6.783,6.413 L11.162,6.413 L11.162,8.545 C11.421,7.613 12.820,6.283 15.053,6.283 C17.823,6.283 20.000,8.238 20.000,12.445 L20.000,20.000 ZM2.354,4.714 L2.326,4.714 C0.915,4.714 0.000,3.675 0.000,2.360 C0.000,1.018 0.942,0.000 2.381,0.000 C3.819,0.000 4.704,1.016 4.732,2.356 C4.732,3.671 3.819,4.714 2.354,4.714 ZM0.504,6.413 L4.403,6.413 L4.403,19.999 L0.504,19.999 L0.504,6.413 Z"/>
</svg>
