<svg xmlns="http://www.w3.org/2000/svg" xmlns:xlink="http://www.w3.org/1999/xlink" preserveAspectRatio="xMidYMid" width="20" height="18" viewBox="0 0 20 18">
  <path d="M17.644,2.846 C18.492,2.284 19.142,1.394 19.447,0.333 C18.654,0.854 17.777,1.231 16.841,1.435 C16.094,0.551 15.027,-0.000 13.846,-0.000 C11.581,-0.000 9.745,2.035 9.745,4.544 C9.745,4.900 9.779,5.247 9.849,5.578 C6.440,5.389 3.417,3.582 1.392,0.831 C1.039,1.504 0.837,2.284 0.837,3.116 C0.837,4.692 1.561,6.083 2.662,6.899 C1.990,6.876 1.357,6.669 0.803,6.331 L0.803,6.387 C0.803,8.589 2.216,10.426 4.096,10.842 C3.751,10.949 3.389,11.002 3.013,11.002 C2.749,11.002 2.491,10.975 2.242,10.922 C2.763,12.726 4.279,14.041 6.075,14.077 C4.670,15.296 2.901,16.021 0.979,16.021 C0.648,16.021 0.320,16.002 0.000,15.959 C1.816,17.247 3.973,18.000 6.290,18.000 C13.838,18.000 17.963,11.076 17.963,5.071 C17.963,4.874 17.961,4.678 17.953,4.484 C18.754,3.843 19.452,3.042 20.000,2.131 C19.264,2.492 18.473,2.737 17.644,2.846 Z" />
</svg>
