<?xml version="1.0" encoding="utf-8"?>
<!-- Generator: Adobe Illustrator 20.0.0, SVG Export Plug-In . SVG Version: 6.00 Build 0)  -->
<svg version="1.1" id="Layer_1" xmlns="http://www.w3.org/2000/svg" xmlns:xlink="http://www.w3.org/1999/xlink" x="0px" y="0px"
	 viewBox="0 0 62.4 65.7" style="enable-background:new 0 0 62.4 65.7;" xml:space="preserve">
<style type="text/css">
	.gtv-st0{fill:none;stroke:#808080;stroke-width:1.2169;stroke-miterlimit:10;}
	.gtv-st1{fill:none;stroke:#00C121;stroke-width:2;stroke-linecap:round;stroke-linejoin:bevel;}
	.gtv-st2{fill:none;stroke:#00C121;stroke-width:2;stroke-linecap:round;stroke-linejoin:bevel;stroke-dasharray:1.0909,5.4545;}
	.gtv-st3{fill:#00C121;}
	.gtv-st4{fill:#FFFFFF;}
</style>
<line class="gtv-st0" x1="31.2" y1="3.3" x2="31.2" y2="7.7"/>
<circle class="gtv-st0" cx="31.2" cy="34.4" r="26.9"/>
<line class="gtv-st0" x1="31.2" y1="61.3" x2="31.2" y2="65.7"/>
<line class="gtv-st0" x1="0" y1="34.5" x2="4.4" y2="34.5"/>
<line class="gtv-st0" x1="58" y1="34.5" x2="62.4" y2="34.5"/>
<g>
	<g>
		<g>
			<line class="gtv-st1" x1="31.6" y1="18.7" x2="31.6" y2="18.2"/>
			<line class="gtv-st2" x1="31.6" y1="12.8" x2="31.6" y2="9"/>
			<line class="gtv-st1" x1="31.5" y1="6.2" x2="31.5" y2="5.7"/>
			<g>
				<polygon class="gtv-st3" points="35.5,6.9 31.5,0 27.6,6.9"/>
			</g>
		</g>
	</g>
	<g>
		<polygon class="gtv-st4" points="31.6,28.3 25.6,22.1 37.5,22"/>
		<path class="gtv-st4" d="M38.7,28l0,12.6c0,0.5-0.4,0.8-0.8,0.8l-12.6,0c-0.5,0-0.8-0.4-0.8-0.8l0-12.6c0-0.5,0.4-0.8,0.8-0.8l12.6,0
			C38.3,27.2,38.7,27.6,38.7,28z"/>
	</g>
</g>
</svg>
