<?xml version="1.0" encoding="utf-8"?>
<!-- Generator: Adobe Illustrator 20.0.0, SVG Export Plug-In . SVG Version: 6.00 Build 0)  -->
<svg version="1.1" id="Layer_1" xmlns="http://www.w3.org/2000/svg" xmlns:xlink="http://www.w3.org/1999/xlink" x="0px" y="0px"
	 viewBox="0 0 62.2 62.2" style="enable-background:new 0 0 62.2 62.2;" xml:space="preserve">
<style type="text/css">
	.gsv-st0{fill:none;stroke:#808080;stroke-width:1.1758;stroke-miterlimit:10;}
	.gsv-st1{fill:none;stroke:#00C121;stroke-width:2;stroke-linecap:round;stroke-linejoin:bevel;}
	.gsv-st2{fill:none;stroke:#00C121;stroke-width:2;stroke-linecap:round;stroke-linejoin:bevel;stroke-dasharray:1,5;}
	.gsv-st3{fill:#00C121;}
	.gsv-st4{fill:#FFFFFF;}
</style>
<path class="gsv-st0" d="M61.6,9.3c0,28.9-23.4,52.3-52.3,52.3"/>
<g>
	<g>
		<line class="gsv-st1" x1="21.9" y1="21.9" x2="22.2" y2="22.2"/>
		<line class="gsv-st2" x1="25.8" y1="25.8" x2="45.2" y2="45.2"/>
		<line class="gsv-st1" x1="47" y1="47" x2="47.3" y2="47.3"/>
		<g>
			<polygon class="gsv-st3" points="43.7,49.3 51.4,51.4 49.3,43.7 			"/>
		</g>
	</g>
</g>
<g>
	<polygon class="gsv-st4" points="14,14 22.6,14.2 14.2,22.6 	"/>
	<path class="gsv-st4" d="M9.1,19.2l-8.9-8.9c-0.3-0.3-0.3-0.8,0-1.2l8.9-8.9c0.3-0.3,0.8-0.3,1.2,0l8.9,8.9c0.3,0.3,0.3,0.8,0,1.2
		l-8.9,8.9C10,19.5,9.5,19.5,9.1,19.2z"/>
</g>
<line class="gsv-st0" x1="62.1" y1="9.3" x2="27.8" y2="9.3"/>
<line class="gsv-st0" x1="9.7" y1="27.6" x2="9.7" y2="61.9"/>
</svg>
