<svg xmlns="http://www.w3.org/2000/svg" xmlns:xlink="http://www.w3.org/1999/xlink" preserveAspectRatio="xMidYMid" width="17" height="18" viewBox="0 0 17 18">
  <path d="M0.000,3.000 L2.000,3.000 L2.000,18.000 L15.000,18.000 L15.000,3.000 L17.000,3.000 L17.000,2.000 L13.000,2.000 L13.000,-0.000 L4.000,-0.000 L4.000,2.000 L0.000,2.000 L0.000,3.000 ZM13.000,5.000 L13.000,15.000 L12.000,15.000 L12.000,5.000 L13.000,5.000 ZM9.000,5.000 L9.000,15.000 L8.000,15.000 L8.000,5.000 L9.000,5.000 ZM5.000,5.000 L5.000,15.000 L4.000,15.000 L4.000,5.000 L5.000,5.000 ZM5.000,1.000 L12.000,1.000 L12.000,2.000 L5.000,2.000 L5.000,1.000 Z"/>
</svg>
