<svg xmlns="http://www.w3.org/2000/svg" xmlns:xlink="http://www.w3.org/1999/xlink" preserveAspectRatio="xMidYMid" width="18" height="18" viewBox="0 0 18 18">
  <path d="M17.434,4.864 L17.165,5.133 L12.862,0.830 L13.131,0.561 C13.490,0.202 13.967,0.004 14.476,0.004 C14.984,0.004 15.461,0.202 15.820,0.561 L17.434,2.175 C18.176,2.916 18.176,4.123 17.434,4.864 ZM6.026,16.272 L1.722,11.969 L11.248,2.444 L15.552,6.747 L6.026,16.272 ZM5.384,16.834 L0.464,17.987 C0.436,17.994 0.406,17.997 0.377,17.997 C0.278,17.997 0.180,17.958 0.108,17.885 C0.015,17.792 -0.023,17.658 0.007,17.530 L1.161,12.611 C1.168,12.578 1.181,12.548 1.197,12.519 L5.476,16.798 C5.447,16.813 5.416,16.826 5.384,16.834 Z" />
</svg>
