<svg xmlns="http://www.w3.org/2000/svg" xmlns:xlink="http://www.w3.org/1999/xlink" preserveAspectRatio="xMidYMid" width="22" height="14" viewBox="0 0 22 14">
  <path d="M21.887,7.311 C21.671,7.583 17.512,14.000 10.991,14.000 C4.470,14.000 0.311,7.583 0.095,7.311 C-0.050,7.128 -0.050,6.872 0.095,6.689 C0.311,6.416 4.470,-0.000 10.991,-0.000 C17.512,-0.000 21.671,6.416 21.887,6.689 C22.032,6.872 22.032,7.128 21.887,7.311 ZM11.000,2.000 C8.518,2.000 6.000,4.519 6.000,7.000 C6.000,9.481 8.518,12.000 11.000,12.000 C13.482,12.000 16.000,9.481 16.000,7.000 C16.000,4.519 13.482,2.000 11.000,2.000 ZM11.000,10.000 C9.069,10.000 8.000,8.930 8.000,7.000 C8.000,5.070 9.069,4.000 11.000,4.000 C12.931,4.000 14.000,5.070 14.000,7.000 C14.000,8.930 12.931,10.000 11.000,10.000 Z"/>
</svg>
