<?xml version="1.0" encoding="UTF-8" standalone="no"?>
<svg width="25px" height="16px" viewBox="0 0 25 16" version="1.1" xmlns="http://www.w3.org/2000/svg" xmlns:xlink="http://www.w3.org/1999/xlink">
    <!-- Generator: sketchtool 39 (31667) - http://www.bohemiancoding.com/sketch -->
    <title>765B921B-D052-4FE1-9415-82351BEADA35</title>
    <desc>Created with sketchtool.</desc>
    <defs></defs>
    <g id="Assets" stroke="none" stroke-width="1" fill="none" fill-rule="evenodd">
        <g transform="translate(-251.000000, -95.000000)" id="icon-telemetry" fill="#DCD300">
            <g transform="translate(251.000000, 95.000000)">
                <g id="signal-strength" transform="translate(17.000000, 2.000000)">
                    <polygon id="Fill-11" points="6 13 7.5 13 7.5 4 6 4"></polygon>
                    <polygon id="Fill-12" points="3 13 4.5 13 4.5 6 3 6"></polygon>
                    <polygon id="Fill-13" points="0 13 1.5 13 1.5 8 0 8"></polygon>
                </g>
                <path height="16px" d="M10.2678372,2.06129767 C10.1288605,2.06171628 9.99574419,2.12199535 9.89946512,2.22873953 L9.89946512,2.23083256 C9.70355814,2.44766977 9.70816279,2.7926 9.90993023,3.00273953 C10.7387674,3.88766977 10.7387674,5.30506512 9.90993023,6.18999535 C9.70648837,6.40055349 9.70146512,6.74715814 9.89862791,6.96441395 C10.0957907,7.18166977 10.4210465,7.18711163 10.6244884,6.97655349 C10.6282558,6.97236744 10.6324419,6.9681814 10.6362093,6.96399535 C11.8568605,5.66087907 11.8568605,3.53185581 10.6362093,2.22873953 C10.5399302,2.12199535 10.406814,2.06171628 10.2678372,2.06129767 M3.52453488,2.06129767 C3.38555814,2.06171628 3.25244186,2.12199535 3.15616279,2.22873953 C1.93509302,3.53185581 1.93509302,5.66087907 3.15616279,6.96399535 C3.35290698,7.18125116 3.67816279,7.18711163 3.88202326,6.97697209 C4.08546512,6.76683256 4.09132558,6.4198093 3.89416279,6.20255349 C3.89039535,6.19836744 3.8862093,6.1941814 3.88244186,6.18999535 C3.05360465,5.30506512 3.05360465,3.88766977 3.88244186,3.00273953 C4.0842093,2.7926 4.08881395,2.44766977 3.89290698,2.23083256 L3.89290698,2.22873953 C3.7962093,2.12199535 3.66351163,2.06171628 3.52453488,2.06129767 M11.8635581,0.741018605 C11.7245814,0.7406 11.5918837,0.800460465 11.495186,0.906367442 C11.2976047,1.12320465 11.3022093,1.4698093 11.5052326,1.68036744 C13.0184884,3.29534419 13.0184884,5.8973907 11.5052326,7.51236744 C11.2938372,7.71371628 11.2754186,8.05990233 11.4646279,8.28553023 C11.6534186,8.51157674 11.9778372,8.53083256 12.1892326,8.32948372 C12.2034651,8.31566977 12.2168605,8.30143721 12.2298372,8.28636744 C14.134907,6.25278605 14.134907,2.93994884 12.2298372,0.906367442 C12.1335581,0.80087907 12.0012791,0.741437209 11.8635581,0.741018605 M1.92881395,0.741018605 C1.79067442,0.741437209 1.65881395,0.80087907 1.56253488,0.906367442 C-0.342534884,2.93994884 -0.342534884,6.25278605 1.56253488,8.28636744 C1.77393023,8.48771628 2.09834884,8.46804186 2.28713953,8.24241395 C2.46127907,8.03436744 2.46127907,7.71999535 2.28672093,7.51236744 C0.773465116,5.8973907 0.773465116,3.29534419 2.28672093,1.68036744 C2.49016279,1.4698093 2.49476744,1.12320465 2.29718605,0.906367442 C2.20048837,0.800460465 2.06737209,0.7406 1.92881395,0.741018605" id="Fill-1"></path>
                <path d="M8.97878605,4.76460465 C8.97878605,3.41544186 7.64678605,2.36934884 6.24404186,2.80762791 C5.48008837,3.04665116 4.89446047,3.71767442 4.80194884,4.51260465 C4.67887907,5.5704186 5.34320465,6.48255814 6.25366977,6.74167442 L6.25366977,14.7847442 C6.25366977,14.934186 6.37464651,15.0551628 6.52408837,15.0551628 L7.23822791,15.0551628 C7.38808837,15.0551628 7.50948372,14.934186 7.50948372,14.7843256 L7.50948372,6.74167442 C8.34669302,6.50306977 8.97878605,5.71274419 8.97878605,4.76460465" id="Fill-4"></path>
            </g>
        </g>
    </g>
</svg>