<?xml version="1.0" encoding="UTF-8" standalone="no"?>
<svg width="36px" height="18px" viewBox="0 0 36 18" version="1.1" xmlns="http://www.w3.org/2000/svg" xmlns:xlink="http://www.w3.org/1999/xlink">
    <!-- Generator: sketchtool 39 (31667) - http://www.bohemiancoding.com/sketch -->
    <title>F971CC8B-33DE-4D88-8352-4661AE5375C1</title>
    <desc>Created with sketchtool.</desc>
    <defs></defs>
    <g id="Assets" stroke="none" stroke-width="1" fill="none" fill-rule="evenodd">
        <g transform="translate(-354.000000, -93.000000)" id="icon-rc" fill="#00C120">
            <g transform="translate(354.000000, 93.000000)">
                <g id="signal-strength" transform="translate(22.000000, 4.000000)">
                    <polygon id="Fill-8" points="12 13 13.5 13 13.5 0 12 0"></polygon>
                    <polygon id="Fill-10" points="9 13 10.5 13 10.5 2 9 2"></polygon>
                    <polygon id="Fill-11" points="6 13 7.5 13 7.5 4 6 4"></polygon>
                    <polygon id="Fill-12" points="3 13 4.5 13 4.5 6 3 6"></polygon>
                    <polygon id="Fill-13" points="0 13 1.5 13 1.5 8 0 8"></polygon>
                </g>
                <g id="icon">
                    <path d="M12.7609209,14.8080877 C11.1499013,14.8080877 9.84345041,13.4298409 9.84345041,11.7292838 C9.84345041,10.0291763 11.1499013,8.65092938 12.7609209,8.65092938 C14.3719405,8.65092938 15.6783913,10.0291763 15.6783913,11.7292838 C15.6783913,13.4298409 14.3719405,14.8080877 12.7609209,14.8080877 L12.7609209,14.8080877 Z M4.1916767,14.8080877 C2.58023112,14.8080877 1.27420623,13.4298409 1.27420623,11.7292838 C1.27420623,10.0291763 2.58023112,8.65092938 4.1916767,8.65092938 C5.80269631,8.65092938 7.10872119,10.0291763 7.10872119,11.7292838 C7.10872119,13.4298409 5.80269631,14.8080877 4.1916767,14.8080877 L4.1916767,14.8080877 Z M11.0753565,6.66627185 L11.0753565,5.31769369 L8.94550505,5.31769369 L8.94550505,0.937453234 C8.94550505,0.663242341 8.77895067,0.441176471 8.51953477,0.441176471 C8.2596929,0.441176471 8.09356449,0.663242341 8.09356449,0.937453234 L8.09356449,5.31769369 L5.96371307,5.31769369 L5.96371307,6.66627185 L0.000129113923,6.66627185 L0.000129113923,17.0053711 L17.0389404,17.0053711 L17.0389404,6.66627185 L11.0753565,6.66627185 Z" id="Fill-3"></path>
                    <path d="M14.3006331,11.7294636 C14.3006331,12.6267176 13.6114131,13.3545003 12.7607505,13.3545003 C11.9105138,13.3545003 11.2212939,12.6267176 11.2212939,11.7294636 C11.2212939,10.8322096 11.9105138,10.1044269 12.7607505,10.1044269 C13.6114131,10.1044269 14.3006331,10.8322096 14.3006331,11.7294636 L14.3006331,11.7294636 Z" id="Fill-1"></path>
                    <path d="M5.73126109,11.7294636 C5.73126109,12.6267176 5.04204117,13.3545003 4.19137852,13.3545003 C3.34114183,13.3545003 2.65192192,12.6267176 2.65192192,11.7294636 C2.65192192,10.8322096 3.34114183,10.1044269 4.19137852,10.1044269 C5.04204117,10.1044269 5.73126109,10.8322096 5.73126109,11.7294636" id="Fill-6"></path>
                </g>
            </g>
        </g>
    </g>
</svg>