<?xml version="1.0" encoding="UTF-8" standalone="no"?>
<svg width="18px" height="16px" viewBox="0 0 18 16" version="1.1" xmlns="http://www.w3.org/2000/svg" xmlns:xlink="http://www.w3.org/1999/xlink">
    <g id="Assets" stroke="none" stroke-width="1" fill="none" fill-rule="evenodd">
        <g transform="translate(-462.000000, -95.000000)" id="icon-warning" fill="#abafb9">
            <g transform="translate(462.000000, 95.000000)">
                <polygon id="Fill-1" points="8.1827234 12.2264151 9.7146383 12.2264151 9.7146383 10.8891509 8.1827234 10.8891509"></polygon>
                <polygon id="Fill-2" points="8.1827234 10.125 9.7146383 10.125 9.7146383 4.58490566 8.1827234 4.58490566"></polygon>
                <path d="M7.29306383,0 L6.79557447,0.823945755 L0.502851064,11.6794741 L0,12.5395259 L0.511085106,13.3993868 L1.13304255,14.4441722 L1.63321277,15.2830189 L2.6172766,15.2830189 L15.326617,15.2830189 L16.2970851,15.2830189 L16.8003191,14.4594552 L17.4096383,13.4591816 L17.9381489,12.590342 L17.4284043,11.7098491 L11.1075319,0.823563679 L10.6098511,0 L7.29306383,0 Z M1.99551064,12.5525165 L8.28804255,1.71933962 L9.52314894,1.71933962 L9.61506383,1.71933962 L15.9359362,12.6014222 L15.326617,13.5636792 L2.6172766,13.5636792 L1.99551064,12.5525165 Z" id="Fill-3"></path>
            </g>
        </g>
    </g>
</svg>