<?xml version="1.0" encoding="UTF-8" standalone="no"?>
<svg width="35px" height="17px" viewBox="0 0 35 17" version="1.1" xmlns="http://www.w3.org/2000/svg" xmlns:xlink="http://www.w3.org/1999/xlink">
    <g id="Assets" stroke="none" stroke-width="1" fill="none" fill-rule="evenodd">
        <g transform="translate(-144.000000, -94.000000)" id="icon-gps">
            <g transform="translate(144.000000, 94.000000)">
                <g id="signal-strength" transform="translate(21.000000, 4.000000)" >
                    <polygon fill="#abafb9" id="Fill-8" points="12 13 13.5 13 13.5 0 12 0"></polygon>
                    <polygon fill="#abafb9" id="Fill-10" points="9 13 10.5 13 10.5 2 9 2"></polygon>
                    <polygon fill="#00C121" id="Fill-11" points="6 13 7.5 13 7.5 4 6 4"></polygon>
                    <polygon fill="#00C121" id="Fill-12" points="3 13 4.5 13 4.5 6 3 6"></polygon>
                    <polygon fill="#00C121" id="Fill-13" points="0 13 1.5 13 1.5 8 0 8"></polygon>
                </g>
                <g id="icon" fill="#00C121">
                    <polygon id="Fill-1" points="9.62760591 12.3214211 4.33115042 6.71340936 4.79278677 6.22461793 10.0892423 11.8326296"></polygon>
                    <polygon id="Fill-2" points="0 4.24206335 4.44939192 8.95318421 6.90310645 6.35513353 2.45371453 1.64401267"></polygon>
                    <polygon id="Fill-3" points="7.53751998 12.2229669 11.9869119 16.9340877 14.4406264 14.336037 9.99123451 9.62491618"></polygon>
                    <path d="M3.71005393,10.7667329 L8.62452491,5.56317544 C8.85377821,5.32043665 9.22559108,5.32043665 9.45484438,5.56317544 L10.7275523,6.91074854 C10.9568056,7.15348733 10.9568056,7.54700585 10.7275523,7.78974464 L5.81308133,12.9934678 C5.58382803,13.2362066 5.21217165,13.2362066 4.98291835,12.9934678 L3.71005393,11.645729 C3.48080063,11.4029903 3.48080063,11.0094717 3.71005393,10.7667329" id="Fill-4"></path>
                    <path d="M13.1404385,7.27586745 C13.0285504,7.27586745 12.9294942,7.19086745 12.9094638,7.07007797 C12.5914825,5.14689084 11.0879564,3.66692982 9.25299101,3.47124756 C9.12404581,3.45749513 9.02999718,3.33554581 9.0429856,3.19901559 C9.05597401,3.06231969 9.17286972,2.96423002 9.30009357,2.97665692 C11.3434995,3.1947076 13.0179092,4.84268031 13.3718826,6.9844152 C13.3942602,7.11961988 13.3088184,7.24836257 13.1812816,7.27205653 C13.1675107,7.27454191 13.1538964,7.27586745 13.1404385,7.27586745" id="Fill-6"></path>
                    <path d="M14.4748492,6.69140546 C14.3662473,6.69140546 14.2685995,6.61087914 14.2454394,6.49373489 C13.7806733,4.1447193 11.9594788,2.35110331 9.71342241,2.03065497 C9.58494666,2.01242885 9.49481021,1.88716569 9.51218026,1.75129825 C9.5295503,1.61526511 9.64879332,1.5199922 9.77617365,1.53805263 C12.2187776,1.88650292 14.1994323,3.83702924 14.7048849,6.39183431 C14.7314877,6.52621053 14.6501145,6.65793567 14.5233601,6.68610331 C14.5070855,6.68958285 14.4909673,6.69140546 14.4748492,6.69140546" id="Fill-8"></path>
                    <path d="M15.8164583,6.16982359 C15.7089518,6.16982359 15.6117734,6.09095419 15.587518,5.97513548 C15.0064821,3.21139279 12.8428943,1.05192885 10.2035863,0.601909357 C10.0754235,0.580038012 9.98857332,0.452455166 10.0092296,0.316919103 C10.0297294,0.181383041 10.1494418,0.0884298246 10.2780741,0.11112963 C13.1056358,0.593293372 15.4233632,2.90651949 16.0457116,5.86726998 C16.0740357,6.00114912 15.9942274,6.13403411 15.8676295,6.16385867 C15.850416,6.16783528 15.8332024,6.16982359 15.8164583,6.16982359" id="Fill-10"></path>
                </g>
            </g>
        </g>
    </g>
</svg>