<?xml version="1.0" encoding="UTF-8" standalone="no"?>
<svg width="16px" height="16px" viewBox="0 0 16 16" version="1.1" xmlns="http://www.w3.org/2000/svg" xmlns:xlink="http://www.w3.org/1999/xlink">
    <!-- Generator: sketchtool 39 (31667) - http://www.bohemiancoding.com/sketch -->
    <title>A0920B25-37CF-446C-85B6-A2B127B8ED38</title>
    <desc>Created with sketchtool.</desc>
    <defs></defs>
    <g id="Assets" stroke="none" stroke-width="1" fill="none" fill-rule="evenodd">
        <g transform="translate(-724.000000, -95.000000)" id="icon-settings" fill="#F0F7FF">
            <g transform="translate(724.000000, 95.000000)">
                <path d="M7.99957798,6.12518785 C6.92595263,6.12518785 6.05208462,7.02471528 6.05208462,8.13051114 C6.05208462,9.23601731 6.92595263,10.1355447 7.99957798,10.1355447 C9.07489142,10.1355447 9.94960347,9.23601731 9.94960347,8.13051114 C9.94960347,7.02471528 9.07489142,6.12518785 7.99957798,6.12518785 M7.99957798,11.7028373 C6.08640912,11.7028373 4.52998998,10.1004907 4.52998998,8.13051114 C4.52998998,6.1605316 6.08640912,4.55789531 7.99957798,4.55789531 C9.91387223,4.55789531 11.4716981,6.1605316 11.4716981,8.13051114 C11.4716981,10.1004907 9.91387223,11.7028373 7.99957798,11.7028373 M8.62445269,14.2620725 C8.84080958,14.2620725 9.04816332,14.3568053 9.19362043,14.5254124 L10.465315,16 L11.4390617,15.5159065 C11.4553799,15.5075051 11.4722608,15.4999728 11.4891417,15.4933097 L11.4894231,15.49302 L12.4395365,15.0208043 L12.1131724,13.0792156 C12.0720955,12.8329682 12.1469342,12.5812164 12.3154619,12.4013109 C12.5689567,12.1313078 12.8024759,11.8300168 13.0103923,11.5067084 C13.1434701,11.2995709 13.3640472,11.1694943 13.6051627,11.1564577 L15.5127046,11.052744 L15.7535388,9.96201271 C15.7549456,9.95419073 15.7566337,9.94694816 15.7580404,9.93941589 L16,8.8515816 L14.3240078,7.90743993 C14.1101831,7.78692354 13.9650073,7.56819787 13.9343403,7.3190534 C13.8865111,6.93519709 13.8043574,6.56234949 13.6898486,6.21122961 C13.6121965,5.97280414 13.6498971,5.71120245 13.7919781,5.50667222 L14.9013346,3.90577414 L14.2297561,3.03695522 C14.2230037,3.02913325 14.2162514,3.02131127 14.2100617,3.01290988 L13.5345443,2.14090424 L11.7733036,2.90021547 C11.5493503,2.99639682 11.2938859,2.97756613 11.0862509,2.84835865 C10.7638256,2.64817397 10.4211433,2.47956689 10.0683325,2.34659328 C9.83875222,2.26055152 9.66375354,2.06616089 9.59735533,1.82425899 L9.09542985,0 L6.90569555,0 L6.40405142,1.82194137 C6.3376532,2.06239476 6.16349857,2.25678538 5.93532505,2.34311684 C5.57716858,2.47898749 5.23336088,2.64904308 4.91262375,2.84835865 C4.70470731,2.97727643 4.449243,2.99668652 4.22557105,2.90021547 L2.46376761,2.14090424 L1.78853154,3.01290988 C1.78121648,3.02218038 1.77390142,3.03145087 1.76630502,3.04043166 L1.76011535,3.04796393 L1.09697726,3.90548444 L2.20886599,5.50898984 C2.35094691,5.71352007 2.38864759,5.97570117 2.31099545,6.21412664 C2.19648666,6.56495682 2.11433294,6.9360662 2.06650372,7.31760488 C2.0355554,7.56588024 1.89122369,7.7834471 1.67824298,7.9039635 L0,8.85331981 L0.234081837,9.91247352 C0.239427456,9.9304351 0.244210378,9.94868638 0.248149255,9.96693766 L0.488139408,11.052744 L2.39849479,11.1564577 C2.64270516,11.169784 2.86637711,11.303337 2.99861084,11.5153995 C3.19189717,11.8253816 3.42260282,12.1240653 3.68510085,12.4036285 C3.85362851,12.5832443 3.92902988,12.8355755 3.88767167,13.081823 L3.56130757,15.0208043 L4.51142099,15.49302 C4.52830189,15.4996831 4.54518279,15.5072154 4.56150099,15.5156168 L5.53524767,16 L6.80694227,14.5251227 C6.96899893,14.3373952 7.20758234,14.2406344 7.45179272,14.2658386 C7.81416941,14.3029206 8.18864408,14.3026309 8.54764459,14.2658386 C8.57409133,14.2632313 8.59941269,14.2620725 8.62445269,14.2620725" id="Fill-1"></path>
            </g>
        </g>
    </g>
</svg>