<?xml version="1.0" encoding="UTF-8" standalone="no"?>
<svg width="16px" height="16px" viewBox="0 0 16 16" version="1.1" xmlns="http://www.w3.org/2000/svg" xmlns:xlink="http://www.w3.org/1999/xlink">
    <!-- Generator: sketchtool 39 (31667) - http://www.bohemiancoding.com/sketch -->
    <title>C605FAAF-ECBB-4992-8AC5-9913B45A3C3E</title>
    <desc>Created with sketchtool.</desc>
    <defs></defs>
    <g id="Assets" stroke="none" stroke-width="1" fill="none" fill-rule="evenodd">
        <g transform="translate(-636.000000, -95.000000)" id="icon-safechecks" fill="#EA0707">
            <g transform="translate(636.000000, 95.000000)">
                <path d="M2.22696125,0.00265112797 C2.10920868,-0.0102830935 2.00039543,0.0242081638 1.91901669,0.103969196 L0.0975507682,1.9249228 C-0.0624324458,2.08413691 -0.0192770509,2.38008422 0.180470777,2.57933282 L5.60510392,7.99969549 L0.180470777,13.4191343 C-0.0192770509,13.6186908 -0.0624324458,13.9124824 0.0975507682,14.0729284 L1.91901669,15.8932661 C2.07992466,16.0546359 2.37584737,16.031847 2.57467044,15.8329064 L7.99930358,10.4119278 L13.4251697,15.8329064 C13.6246093,16.031847 13.9196073,16.0546359 14.0805152,15.8932661 L15.9025976,14.0729284 C16.0619644,13.9124824 16.0197337,13.6186908 15.8199859,13.4191343 L10.3950445,7.99969549 L15.8199859,2.57933282 C16.0197337,2.38008422 16.0619644,2.08413691 15.9025976,1.9249228 L14.0805152,0.103969196 C13.9196073,-0.055244911 13.6246093,-0.0127467547 13.4251697,0.18619389 L7.99930358,5.60717247 L2.57467044,0.18619389 C2.47479652,0.0861076522 2.34502208,0.0155853494 2.22696125,0.00265112797" id="Fill-1"></path>
            </g>
        </g>
    </g>
</svg>