<svg version="1.1" id="Layer_1" xmlns="http://www.w3.org/2000/svg" xmlns:xlink="http://www.w3.org/1999/xlink" x="0px" y="0px"
	 viewBox="0 0 24 24" style="enable-background:new 0 0 24 24;" xml:space="preserve">
<rect x="2.4" y="5" width="1.9" height="1.2"/>
<path d="M9.1,8.9v0.3H6.5V7.5c0-0.6-0.5-1-1-1H1.2c-0.6,0-1,0.5-1,1v9c0,0.6,0.5,1,1,1h4.2c0.6,0,1-0.5,1-1v-1.7h2.7
	v0.3h0.6V8.9H9.1z M9,14.2H6.9v-0.3H9V14.2z M9,13.2H6.9v-0.3H9V13.2z M9,12.2H6.9v-0.3H9V12.2z M9,11.1H6.9v-0.3H9V11.1z M9,10.1
	H6.9V9.8H9V10.1z"/>
<path d="M23.8,21.4l-13.7-6.6V9.2l13.7-6.6V21.4z M11.1,14.2l11.7,5.6V4.2L11.1,9.8V14.2z"/>
</svg>
