<?xml version="1.0" encoding="UTF-8" standalone="no"?>
<svg width="17px" height="19px" viewBox="0 0 17 19" version="1.1" xmlns="http://www.w3.org/2000/svg" xmlns:xlink="http://www.w3.org/1999/xlink">
    <defs></defs>
    <g id="Management-Assets" stroke="none" stroke-width="1" fill="none" fill-rule="evenodd">
        <g transform="translate(-86.000000, -287.000000)" id="icon-profile" fill="#FFFFFF">
            <path d="M102.130477,300.239556 C101.717126,298.106576 97.5914242,298.35447 96.220488,296.683873 C95.9313763,296.331274 95.9313763,296.342018 96.1251592,295.032811 C96.3884853,293.866793 96.6320814,294.207671 96.9590901,292.922101 C97.2474204,292.925226 97.4580031,292.609352 97.4439382,292.27199 C97.4277245,291.881299 97.6176005,291.736157 97.6123262,291.321047 C97.60881,291.051666 97.4572217,291.032131 97.2903965,291.090344 C97.5085976,288.843868 96.6113747,287 94.2045201,287 C91.7927819,287 90.8965358,288.852073 91.1198159,291.104604 C90.9393165,291.030959 90.7654588,291.033498 90.7617472,291.322415 C90.7562775,291.737524 90.9461536,291.884034 90.9299399,292.274725 C90.915289,292.625371 91.1436481,292.955114 91.4493641,292.925031 C91.7765682,294.213336 92.0203597,293.876755 92.2838811,295.04336 C92.477664,296.352567 92.477664,296.352567 92.1885523,296.705166 C90.8176161,298.375763 86.6919145,298.106576 86.278563,300.239556 C86.2295312,300.491943 86,301.846665 86,301.846665 L102.40904,301.846665 C102.40904,301.846665 102.179509,300.491943 102.130477,300.239556 Z M94.2044952,306 L96.3636044,303.409099 L92.0454359,303.409099 L94.2044952,306 Z"></path>
        </g>
    </g>
</svg>