<?xml version="1.0" encoding="utf-8"?>
<!-- Generator: Adobe Illustrator 19.2.0, SVG Export Plug-In . SVG Version: 6.00 Build 0)  -->
<svg version="1.1" id="Layer_1" xmlns="http://www.w3.org/2000/svg" xmlns:xlink="http://www.w3.org/1999/xlink" x="0px" y="0px"
	 viewBox="0 0 49.8 42.4" style="enable-background:new 0 0 49.8 42.4;" xml:space="preserve">
<style type="text/css">
	.st0{fill:#292C32;}
	.st1{fill:#0A92EA;}
	.st2{fill:url(#Fill-5_1_);}
</style>
<path id="Fill-1_1_" class="st0" d="M23.5,42.4V40C13.8,39.4,6,31.2,6,21.2C6,10.8,14.3,2.4,24.6,2.4s18.5,8.4,18.5,18.8
	c0,10-7.6,18.2-17.2,18.8v2.4"/>
<g id="Checklist">
	<g id="flightplans-grid" transform="translate(-615.000000, -17.000000)">
		<g id="masthead">
			<g id="nav-graphic" transform="translate(0.000000, 17.000000)">
				<g id="logo" transform="translate(612.000000, 0.000000)">
					<path id="Fill-1" class="st1" d="M27.6,0C16.1,0,6.7,9.5,6.7,21.2c0,11.3,8.8,20.5,19.8,21.2V40C16.8,39.4,9,31.2,9,21.2
						C9,10.8,17.3,2.4,27.6,2.4s18.5,8.4,18.5,18.8c0,10-7.6,18.2-17.2,18.8v2.4c11-0.6,19.6-9.9,19.6-21.2C48.4,9.5,39.1,0,27.6,0"/>
					
						<linearGradient id="Fill-5_1_" gradientUnits="userSpaceOnUse" x1="-461.0375" y1="503.9182" x2="-461.0375" y2="502.9182" gradientTransform="matrix(49.8113 0 0 -27.3654 22992.7969 13797.5127)">
						<stop  offset="0" style="stop-color:#FFFFFF"/>
						<stop  offset="1" style="stop-color:#D3D3D3"/>
					</linearGradient>
					<path id="Fill-5" class="st2" d="M52.3,31.5L29.3,8.3c-0.7-0.9-2.1-0.9-3,0L3.5,31.5c-1.2,1.3-0.3,3.4,1.5,3.4l17.4-4.3h4.3
						v-6.1c-1.3-0.5-2.2-1.7-2.2-3.2c0-1.9,1.5-3.4,3.4-3.4c1.9,0,3.4,1.5,3.4,3.4c0,1.4-0.9,2.7-2.1,3.2v6.1h4.1l17.4,4.3
						C52.5,34.9,53.5,32.8,52.3,31.5"/>
				</g>
			</g>
		</g>
	</g>
</g>
</svg>
