<?xml version="1.0" encoding="UTF-8" standalone="no"?>
<svg width="26px" height="5px" viewBox="0 0 26 5" version="1.1" xmlns="http://www.w3.org/2000/svg" xmlns:xlink="http://www.w3.org/1999/xlink">
    <defs></defs>
    <g id="Management-Assets" stroke="none" stroke-width="1" fill="none" fill-rule="evenodd">
        <g transform="translate(-202.000000, -293.000000)" id="icon-overflow" fill="#FFFFFF">
            <path d="M223.125,295.4375 C223.125,294.091306 224.206921,293 225.5625,293 C226.908694,293 228,294.081921 228,295.4375 C228,296.783694 226.918079,297.875 225.5625,297.875 C224.216306,297.875 223.125,296.793079 223.125,295.4375 Z M212.5625,295.4375 C212.5625,294.091306 213.644421,293 215,293 C216.346194,293 217.4375,294.081921 217.4375,295.4375 C217.4375,296.783694 216.355579,297.875 215,297.875 C213.653806,297.875 212.5625,296.793079 212.5625,295.4375 Z M202,295.4375 C202,294.091306 203.081921,293 204.4375,293 C205.783694,293 206.875,294.081921 206.875,295.4375 C206.875,296.783694 205.793079,297.875 204.4375,297.875 C203.091306,297.875 202,296.793079 202,295.4375 Z"></path>
        </g>
    </g>
</svg>