<?xml version="1.0" encoding="utf-8"?>
<!-- Generator: Adobe Illustrator 19.1.0, SVG Export Plug-In . SVG Version: 6.00 Build 0)  -->
<svg version="1.1" id="Layer_1" xmlns="http://www.w3.org/2000/svg" xmlns:xlink="http://www.w3.org/1999/xlink" x="0px" y="0px"
	 viewBox="0 0 282 282" style="enable-background:new 0 0 282 282;" xml:space="preserve">
<style type="text/css">
	.st0{fill:#FFFFFF;}
</style>
<path id="sun" class="st0" d="M13.4,80.1L24.4,61l34.9,20.1c-4.4,5.9-8.1,12.4-11.1,19.1L13.4,80.1z M152,0h-22v40.6
	c3-0.4,7.2-0.6,10.7-0.6c3.8,0,8.3,0.2,11.3,0.6V0z M81.1,59.4c6-4.4,12.4-8.1,19.2-11l-20.2-35L60.9,24.5L81.1,59.4z M268.6,80.1
	L257.6,61l-35.2,20.3c4.4,6,8.1,12.4,11.1,19.1L268.6,80.1z M40.1,152c-0.4-4-0.6-7.2-0.6-10.8c0-3.7,0.2-7.2,0.6-11.2H0v22H40.1z
	 M221.1,24.5l-19.2-11.1l-20.3,35.2c6.8,3,13.2,6.7,19.1,11.1L221.1,24.5z M201.9,268.7l19.2-11.1l-20.2-34.9
	c-5.9,4.4-12.4,8.1-19.1,11.1L201.9,268.7z M24.4,221.1l34.6-20c-4.4-6-8.1-12.4-11.1-19.1l-34.6,20L24.4,221.1z M282,152v-22h-40.7
	c0.4,4,0.6,7.5,0.6,11.2c0,3.6-0.2,6.8-0.6,10.8H282z M257.6,221.1l11.1-19.2l-35.1-20.2c-3,6.8-6.6,13.2-11,19.2L257.6,221.1z
	 M80.1,268.7l20-34.7c-6.8-3-13.2-6.7-19.2-11l-20,34.7L80.1,268.7z M152,282v-40.1c-3,0.4-7.5,0.6-11.3,0.6
	c-3.6,0-7.7-0.2-10.7-0.6V282H152z M220.7,141c0-44.1-35.9-79.9-79.9-79.9S60.8,97,60.8,141S96.6,221,140.7,221
	C184.8,221,220.7,185.1,220.7,141z M197.6,141c0,31.3-25.5,56.8-56.8,56.8c-31.3,0-56.8-25.5-56.8-56.8c0-31.3,25.5-56.8,56.8-56.8
	C172.1,84.2,197.6,109.7,197.6,141z"/>
</svg>
