<?xml version="1.0" encoding="utf-8"?>
<!-- Generator: Adobe Illustrator 19.1.0, SVG Export Plug-In . SVG Version: 6.00 Build 0)  -->
<svg version="1.1" id="Layer_1" xmlns="http://www.w3.org/2000/svg" xmlns:xlink="http://www.w3.org/1999/xlink" x="0px" y="0px"
	 viewBox="0 0 282 282" style="enable-background:new 0 0 282 282;" xml:space="preserve">
<style type="text/css">
	.st0{fill:#FFFFFF;}
</style>
<path class="st0" d="M177.3,141c0-34.5,20-64.5,48.9-79.1c-6.5-5.4-13.6-10.2-21.4-14c-13.8-6.7-29.2-10.5-45.4-10.5
	c-57.1,0-103.5,46.4-103.5,103.5c0,57.1,46.4,103.5,103.5,103.5c16.2,0,31.7-3.8,45.4-10.5c7.7-3.8,14.9-8.6,21.4-14
	C197.2,205.6,177.3,175.7,177.3,141z M177.2,219.9c-6,1.3-12,2-17.8,2c-44.5,0-80.7-36.2-80.7-80.7c0-44.5,36.2-80.7,80.7-80.7
	c5.9,0,11.9,0.7,17.8,2l12.2,2.7l-8.7,9c-17.5,18.1-27.1,41.9-27.1,67s9.6,48.9,27.1,67l8.7,9L177.2,219.9z"/>
</svg>
