<?xml version="1.0" encoding="utf-8"?>
<!-- Generator: Adobe Illustrator 19.1.0, SVG Export Plug-In . SVG Version: 6.00 Build 0)  -->
<svg version="1.1" id="Layer_1" xmlns="http://www.w3.org/2000/svg" xmlns:xlink="http://www.w3.org/1999/xlink" x="0px" y="0px"
	 viewBox="0 0 359.4 240.8" style="enable-background:new 0 0 359.4 240.8;" xml:space="preserve">
<style type="text/css">
	.st0{fill:#FFFFFF;}
</style>
<path id="cloud" class="st0" d="M216.7,23.1c43.2,0,78.3,35.1,78.3,78.3c0,6.5-0.8,12.7-2.3,18.7c24.4,2.4,43.5,23.7,43.5,48.7
	c0,26.7-21.7,49-48.4,49H60.1c-20.4,0-37-17.1-37-37.6c0-20.4,16.6-37.5,37-37.5c0-33,26.8-59.9,59.8-59.9c7,0,13.7,1.2,20,3.4
	C146.9,50.3,178.6,23.1,216.7,23.1 M216.7,0c-40.6,0-76.5,24.2-92.5,59.9c-1.4-0.1-2.9-0.1-4.3-0.1C80.8,59.8,48,87,39.2,123.4
	C16.4,131.9,0,154.3,0,180.2c0,33.3,26.9,60.6,60.1,60.6h227.8c39.4,0,71.5-32.4,71.5-72c0-17.8-6.6-35-18.5-48.3
	c-6.5-7.2-14.2-13-22.8-17c0-0.7,0-1.4,0-2.1C318.1,45.5,272.6,0,216.7,0L216.7,0z"/>
</svg>
