<?xml version="1.0" encoding="utf-8"?>
<!-- Generator: Adobe Illustrator 19.1.0, SVG Export Plug-In . SVG Version: 6.00 Build 0)  -->
<svg version="1.1" id="Layer_1" xmlns="http://www.w3.org/2000/svg" xmlns:xlink="http://www.w3.org/1999/xlink" x="0px" y="0px"
	 viewBox="0 0 398.5 336.5" style="enable-background:new 0 0 398.5 336.5;" xml:space="preserve">
<style type="text/css">
	.st0{fill:#FFFFFF;}
</style>
<g>
	<path id="cloud_1_" class="st0" d="M255.8,118.7c43.2,0,78.3,35.1,78.3,78.3c0,6.5-0.8,12.7-2.3,18.7c24.4,2.4,43.5,23.7,43.5,48.7
		c0,26.7-21.7,49-48.4,49H99.2c-20.4,0-37-17.1-37-37.6c0-20.4,16.6-37.5,37-37.5c0-33,26.8-59.9,59.8-59.9c7,0,13.7,1.2,20,3.4
		C186,145.9,217.7,118.7,255.8,118.7 M255.8,95.6c-40.6,0-76.5,24.2-92.5,59.9c-1.4-0.1-2.9-0.1-4.3-0.1
		c-39.1,0-71.9,27.1-80.6,63.6c-22.9,8.5-39.2,30.9-39.2,56.9c0,33.3,26.9,60.6,60.1,60.6H327c39.4,0,71.5-32.4,71.5-72
		c0-17.8-6.6-35-18.5-48.3c-6.5-7.2-14.2-13-22.8-17c0-0.7,0-1.4,0-2.1C357.2,141.1,311.8,95.6,255.8,95.6L255.8,95.6z"/>
	<path id="moon_1_" class="st0" d="M95.6,81.5c0-27.2,15.7-50.8,38.5-62.2c-5.1-4.3-10.7-8-16.8-11C106.5,3,94.3,0,81.5,0
		C36.6,0,0,36.6,0,81.5s36.6,81.5,81.5,81.5c12.8,0,24.9-3,35.7-8.3c6.1-3,11.7-6.7,16.8-11C111.3,132.3,95.6,108.7,95.6,81.5z
		 M94.4,138.1c-4.1,0.9-8.4,1.5-12.9,1.5c-32,0-58-26-58-58c0-32,26-58,58-58c4.4,0,8.7,0.5,12.9,1.5C80.2,39.6,71.5,59.6,71.5,81.5
		C71.5,103.5,80.2,123.4,94.4,138.1z"/>
</g>
</svg>
