<?xml version="1.0" encoding="utf-8"?>
<!-- Generator: Adobe Illustrator 19.1.0, SVG Export Plug-In . SVG Version: 6.00 Build 0)  -->
<svg version="1.1" id="Layer_1" xmlns="http://www.w3.org/2000/svg" xmlns:xlink="http://www.w3.org/1999/xlink" x="0px" y="0px"
	 viewBox="0 0 427 303" style="enable-background:new 0 0 427 303;" xml:space="preserve">
<style type="text/css">
	.st0{fill:#FFFFFF;}
</style>
<path class="st0" d="M12.6,80.3l11.1-19.2l34.9,20.1c-4.4,5.9-8.1,12.4-11.1,19.1L12.6,80.3z M152,0h-23v40.8
	c3-0.4,7.7-0.6,11.2-0.6c3.8,0,7.8,0.2,11.8,0.6V0z M80.3,59.6c6-4.4,12.4-8.1,19.2-11l-20.2-35L60.1,24.7L80.3,59.6z M39.3,152
	c-0.4-4-0.6-7.2-0.6-10.8c0-3.7,0.2-7.2,0.6-11.2H0v22H39.3z M220.3,24.7l-19.2-11.1l-20.3,35.2c6.8,3,13.2,6.7,19.1,11.1
	L220.3,24.7z M23.6,221.3l34.6-20c-4.4-6-8.1-12.4-11.1-19.1l-34.6,20L23.6,221.3z M427,231c0,39.6-32.1,72-71.5,72H127.7
	c-33.1,0-60.1-27.3-60.1-60.6c0-16.7,6.8-31.9,17.7-42.9C69.7,184.9,60,164.2,60,141.2c0-44.1,35.9-79.9,79.9-79.9
	c28.1,0,52.9,14.6,67.1,36.6c18.8-22,46.7-35.8,77.3-35.8c55.9,0,101.4,45.5,101.4,101.4c0,0.7,0,1.4,0,2.1c8.5,4,16.3,9.8,22.8,17
	C420.4,196,427,213.1,427,231z M105.2,186.2c0.6-0.2,1.1-0.5,1.7-0.7c8.7-36.4,41.6-63.6,80.6-63.6c1.4,0,2.9,0,4.3,0.1
	c0.3-0.7,0.6-1.3,0.9-1.9c-8.4-20.9-28.9-35.7-52.8-35.7c-31.3,0-56.8,25.5-56.8,56.8C83.1,159.5,91.8,175.8,105.2,186.2z
	 M403.9,231c0-25.1-19.1-46.3-43.5-48.7c1.5-6,2.3-12.3,2.3-18.7c0-43.2-35.1-78.3-78.3-78.3c-38.1,0-69.8,27.2-76.8,63.3
	c-6.3-2.2-13-3.4-20-3.4c-33,0-59.8,26.8-59.8,59.9c-20.4,0-37,17.1-37,37.5s16.6,37.6,37,37.6h227.8
	C382.3,280,403.9,257.7,403.9,231z"/>
</svg>
