<?xml version="1.0" encoding="utf-8"?>
<!-- Generator: Adobe Illustrator 19.1.0, SVG Export Plug-In . SVG Version: 6.00 Build 0)  -->
<svg version="1.1" id="Layer_1" xmlns="http://www.w3.org/2000/svg" xmlns:xlink="http://www.w3.org/1999/xlink" x="0px" y="0px"
	 viewBox="0 0 359.4 367.3" style="enable-background:new 0 0 359.4 367.3;" xml:space="preserve">
<style type="text/css">
	.st0{fill:#FFFFFF;}
</style>
<g>
	<path id="cloud_4_" class="st0" d="M216.7,23.1c43.2,0,78.3,35.1,78.3,78.3c0,6.5-0.8,12.7-2.3,18.7c24.4,2.4,43.5,23.7,43.5,48.7
		c0,26.7-21.7,49-48.4,49H60.1c-20.4,0-37-17.1-37-37.6c0-20.4,16.6-37.5,37-37.5c0-33,26.8-59.9,59.8-59.9c7,0,13.7,1.2,20,3.4
		C146.9,50.3,178.6,23.1,216.7,23.1 M216.7,0c-40.6,0-76.5,24.2-92.5,59.9c-1.4-0.1-2.9-0.1-4.3-0.1C80.8,59.8,48,87,39.2,123.4
		C16.4,131.9,0,154.3,0,180.2c0,33.3,26.9,60.6,60.1,60.6h227.8c39.4,0,71.5-32.4,71.5-72c0-17.8-6.6-35-18.5-48.3
		c-6.5-7.2-14.2-13-22.8-17c0-0.7,0-1.4,0-2.1C318.1,45.5,272.6,0,216.7,0L216.7,0z"/>
	<g>
		<polygon class="st0" points="184.4,297.3 198.6,297.3 199.7,297.2 199,298.1 191.9,310.3 202.5,316.4 209.5,304.2 210,303.1 
			210.6,304.3 217.5,316.4 228.1,310.4 221.2,298.3 220.4,297.2 221.7,297.3 235.7,297.3 235.7,285.1 221.7,285.1 220.4,285.2 
			221.2,284.1 228.2,272 217.6,265.9 210.5,278.1 210.1,279.2 209.6,278.1 202.5,265.9 192,272 199,284.2 199.7,285.2 198.5,285 
			184.4,285 		"/>
		<polygon class="st0" points="57.7,297.3 71.9,297.3 73,297.2 72.3,298.1 65.2,310.3 75.8,316.4 82.9,304.2 83.4,303.1 83.9,304.3 
			90.9,316.4 101.4,310.4 94.5,298.3 93.7,297.2 95,297.3 109,297.3 109,285.1 95,285.1 93.7,285.2 94.5,284.1 101.5,272 
			90.9,265.9 83.9,278.1 83.4,279.2 82.9,278.1 75.9,265.9 65.3,272 72.3,284.2 73,285.2 71.8,285 57.7,285 		"/>
		<polygon class="st0" points="247.7,348.1 261.9,348.2 263,348 262.3,348.9 255.2,361.2 265.8,367.3 272.9,355.1 273.4,354 
			273.9,355.2 280.9,367.3 291.4,361.2 284.5,349.2 283.7,348.1 285,348.2 299,348.2 299,336 285,335.9 283.7,336.1 284.5,335 
			291.5,322.9 280.9,316.8 273.9,329 273.4,330.1 272.9,329 265.9,316.8 255.3,322.9 262.3,335.1 263,336 261.8,335.9 247.7,335.9 
					"/>
		<polygon class="st0" points="121.1,348.1 135.3,348.2 136.3,348 135.7,348.9 128.6,361.2 139.1,367.3 146.2,355.1 146.7,354 
			147.2,355.2 154.2,367.3 164.8,361.2 157.8,349.2 157,348.1 158.4,348.2 172.3,348.2 172.3,336 158.4,335.9 157.1,336.1 
			157.8,335 164.8,322.9 154.3,316.8 147.2,329 146.7,330.1 146.2,329 139.2,316.8 128.6,322.9 135.7,335.1 136.4,336 135.2,335.9 
			121.1,335.9 		"/>
	</g>
</g>
</svg>
