<?xml version="1.0" encoding="utf-8"?>
<!-- Generator: Adobe Illustrator 19.1.0, SVG Export Plug-In . SVG Version: 6.00 Build 0)  -->
<svg version="1.1" id="Layer_1" xmlns="http://www.w3.org/2000/svg" xmlns:xlink="http://www.w3.org/1999/xlink" x="0px" y="0px"
	 viewBox="0 0 359.4 396.3" style="enable-background:new 0 0 359.4 396.3;" xml:space="preserve">
<style type="text/css">
	.st0{fill:#FFFFFF;}
</style>
<g>
	<path id="tornado_4_" class="st0" d="M225.1,131.3c-2,4.9-3.9,10.3-5.6,16.5c-5.9,22.7-6.5,48.9-1.8,80c3.8,25.2,2.2,48.4-5.1,73.2
		c-2.9,9.7-6.5,19.2-10.5,28.4c2.3-22.3,0.1-43.5-12.1-68.7c-6.5-13.5-13.9-25.7-20.3-36.4c-8.7-14.5-16.2-27-20-39
		c-6.2-19.7-7.8-37.8-4.7-54.1H225.1 M262.3,109.3H128.5c-9.4,24.2-9.3,52.4,0.2,82.7c7.7,24.6,26.7,48,41.5,78.4
		c18.5,38,9.7,64.4-1.2,113.2l-2.8,12.7h27.8l2.9-5.9c23-46.9,53.2-95.3,42.5-165.9c-11.7-77,15.6-99.6,21.4-112.2L262.3,109.3
		L262.3,109.3z"/>
	<path class="st0" d="M340.9,120.5c-6.5-7.2-14.2-13-22.8-17c0-0.7,0-1.4,0-2.1C318.1,45.5,272.6,0,216.7,0
		c-40.6,0-76.5,24.2-92.5,59.9c-1.4-0.1-2.9-0.1-4.3-0.1C80.8,59.8,48,87,39.2,123.4C16.4,131.9,0,154.3,0,180.2
		c0,33.3,26.9,60.6,60.1,60.6h70.5c-4.6-7.7-9-15.3-12.8-23H60.1c-20.4,0-37-17.1-37-37.6c0-20.4,16.6-37.5,37-37.5
		c0-33,26.8-59.9,59.8-59.9c7,0,13.7,1.2,20,3.4c7-36,38.8-63.3,76.8-63.3c43.2,0,78.3,35.1,78.3,78.3c0,6.5-0.8,12.7-2.3,18.7
		c24.4,2.4,43.5,23.7,43.5,48.7c0,26.7-21.7,49-48.4,49h-29.2c0.2,1.2,0.3,2.4,0.5,3.7c1,6.6,1.7,13.1,2.1,19.3h26.6
		c39.4,0,71.5-32.4,71.5-72C359.4,151,352.8,133.8,340.9,120.5z"/>
</g>
</svg>
