<?xml version="1.0" encoding="utf-8"?>
<svg version="1.1" xmlns="http://www.w3.org/2000/svg" xmlns:xlink="http://www.w3.org/1999/xlink" x="0px" y="0px"
	 viewBox="-287 378.7 36.3 36.3" style="enable-background:new -287 378.7 36.3 36.3;" xml:space="preserve">
<g>
	<g>
		<path d="M-270.4,385.2v-3.7h0.7l1.5,2.5v-2.5h0.7v3.7h-0.8l-1.5-2.4v2.4H-270.4z"/>
	</g>
	<g>
		<path d="M-270.4,411l0.7-0.1c0,0.2,0.1,0.4,0.3,0.5c0.1,0.1,0.3,0.2,0.5,0.2c0.2,0,0.4,0,0.5-0.1
			c0.1-0.1,0.2-0.2,0.2-0.3c0-0.1,0-0.2-0.1-0.2c0-0.1-0.1-0.1-0.3-0.2c-0.1,0-0.3-0.1-0.6-0.2c-0.4-0.1-0.7-0.2-0.8-0.4
			c-0.2-0.2-0.3-0.4-0.3-0.7c0-0.2,0.1-0.4,0.2-0.5c0.1-0.2,0.3-0.3,0.5-0.4c0.2-0.1,0.4-0.1,0.7-0.1c0.5,0,0.8,0.1,1,0.3
			c0.2,0.2,0.4,0.5,0.4,0.8l-0.7,0c0-0.2-0.1-0.3-0.2-0.4c-0.1-0.1-0.3-0.1-0.5-0.1c-0.2,0-0.4,0-0.5,0.1c-0.1,0.1-0.1,0.1-0.1,0.2
			c0,0.1,0,0.2,0.1,0.2c0.1,0.1,0.3,0.2,0.7,0.2c0.4,0.1,0.6,0.2,0.8,0.3c0.2,0.1,0.3,0.2,0.4,0.4c0.1,0.2,0.1,0.3,0.1,0.6
			c0,0.2-0.1,0.4-0.2,0.6c-0.1,0.2-0.3,0.3-0.5,0.4c-0.2,0.1-0.5,0.1-0.8,0.1c-0.5,0-0.8-0.1-1.1-0.3
			C-270.2,411.7-270.3,411.4-270.4,411z"/>
	</g>
	<g>
		<path d="M-283.4,398.8l-0.9-3.7h0.8l0.6,2.6l0.7-2.6h0.9l0.7,2.6l0.6-2.6h0.8l-0.9,3.7h-0.8l-0.7-2.8l-0.7,2.8
			C-282.6,398.8-283.4,398.8-283.4,398.8z"/>
	</g>
	<g>
		<path d="M-256.4,398.8V395h2.8v0.6h-2v0.8h1.9v0.6h-1.9v1h2.1v0.6H-256.4z"/>
	</g>
	<path d="M-268.9,378.7c-10.8,0-18.1,7.4-18.1,18.1c0,10.8,7.3,18.1,18.1,18.1c10.8,0,18.2-7.4,18.2-18.1
		C-250.7,386.1-258.1,378.7-268.9,378.7z M-256.7,408.1l-1.1-1.1c-0.3-0.3-0.7-0.3-1,0c-0.3,0.3-0.3,0.7,0,1l1.1,1.1
		c-2.9,2.7-6.9,4.4-11.2,4.4c-4.3,0-8.2-1.7-11.2-4.4l1.1-1.1c0.3-0.3,0.3-0.7,0-1c-0.3-0.3-0.7-0.3-1,0l-1.1,1.1
		c-2.7-2.9-4.4-6.9-4.4-11.2c0-4.3,1.7-8.2,4.4-11.2l1.1,1.1c0.3,0.3,0.7,0.3,1,0c0.3-0.3,0.3-0.7,0-1l-1.1-1.1
		c2.9-2.7,6.9-4.4,11.2-4.4c4.3,0,8.2,1.7,11.2,4.4l-1.1,1.1c-0.3,0.3-0.3,0.7,0,1c0.3,0.3,0.7,0.3,1,0l1.1-1.1
		c2.7,2.9,4.4,6.9,4.4,11.2C-252.3,401.2-254,405.1-256.7,408.1z"/>
</g>
</svg>
