<svg xmlns="http://www.w3.org/2000/svg" xmlns:xlink="http://www.w3.org/1999/xlink" preserveAspectRatio="xMidYMid" width="30" height="23" viewBox="0 0 30 23">
  <path d="M26.805,23.000 L3.194,23.000 C1.164,23.000 0.000,21.888 0.000,19.948 L0.000,6.673 C0.000,5.487 0.943,4.228 3.000,4.000 L3.000,3.000 C3.000,1.997 3.019,2.000 4.000,2.000 L6.000,2.000 C7.036,2.000 7.000,1.979 7.000,3.000 L7.000,4.000 L11.000,4.000 L12.625,1.534 C13.262,0.555 14.112,-0.000 15.000,-0.000 L21.250,-0.000 C22.137,-0.000 22.988,0.555 23.645,1.562 L23.684,1.631 L25.000,4.000 L27.000,4.000 C29.641,4.000 30.000,5.378 30.000,6.673 L30.000,19.948 C30.000,21.888 28.836,23.000 26.805,23.000 ZM18.000,5.000 C13.864,5.000 10.000,8.772 10.000,13.000 C10.000,17.228 13.864,21.000 18.000,21.000 C22.135,21.000 26.000,17.228 26.000,13.000 C26.000,8.772 22.135,5.000 18.000,5.000 ZM18.000,19.000 C14.554,19.000 12.000,16.523 12.000,13.000 C12.000,9.477 14.554,7.000 18.000,7.000 C21.446,7.000 24.000,9.477 24.000,13.000 C24.000,16.523 21.446,19.000 18.000,19.000 Z"/>
</svg>
