<svg xmlns="http://www.w3.org/2000/svg" xmlns:xlink="http://www.w3.org/1999/xlink" preserveAspectRatio="xMidYMid" width="12" height="12" viewBox="0 0 12 12">
  <path d="M7.228,6.064 L11.724,1.596 C11.897,1.424 11.994,1.194 11.997,0.948 C12.001,0.701 11.910,0.469 11.741,0.292 C11.573,0.115 11.347,0.016 11.106,0.013 C10.864,0.004 10.636,0.103 10.463,0.275 L5.952,4.757 L1.567,0.264 C1.215,-0.096 0.642,-0.098 0.289,0.262 C0.118,0.436 0.023,0.667 0.023,0.913 C0.022,1.160 0.116,1.391 0.286,1.566 L4.658,6.044 L0.276,10.398 C0.103,10.570 0.006,10.800 0.003,11.046 C-0.000,11.293 0.091,11.526 0.259,11.702 C0.431,11.882 0.660,11.981 0.906,11.981 C1.144,11.981 1.367,11.888 1.537,11.719 L5.933,7.351 L10.207,11.730 C10.378,11.905 10.605,12.001 10.848,12.001 C11.088,12.001 11.315,11.906 11.485,11.732 C11.656,11.558 11.751,11.327 11.751,11.081 C11.752,10.834 11.658,10.603 11.488,10.428 L7.228,6.064 Z"/>
</svg>
