<svg xmlns="http://www.w3.org/2000/svg" xmlns:xlink="http://www.w3.org/1999/xlink" preserveAspectRatio="xMidYMid" width="57" height="23" viewBox="0 0 57 23">
  <path d="M46.003,4.000 L46.003,6.333 C46.006,6.351 46.014,6.368 46.014,6.387 L46.014,8.393 C46.014,8.621 45.816,9.000 45.594,9.000 L37.994,9.000 L37.994,10.982 C37.994,10.983 37.995,10.983 37.996,10.984 L43.542,16.378 C43.827,16.667 43.987,17.060 43.987,17.470 L43.987,21.473 C43.987,22.319 43.783,23.005 42.958,23.005 C42.132,23.005 41.997,22.319 41.997,21.473 L41.997,18.111 L36.579,12.977 L20.358,12.977 L15.000,18.000 L15.000,21.000 C15.000,21.846 14.784,23.005 13.958,23.005 C13.132,23.005 13.000,21.846 13.000,21.000 L13.000,17.000 C13.000,16.590 13.343,16.033 13.628,15.745 L18.983,10.960 L18.983,9.000 L11.344,9.000 C11.121,9.000 10.999,8.621 10.999,8.393 L10.999,7.586 L10.999,6.387 L10.999,4.000 L-0.000,4.000 L9.552,1.037 L10.999,1.778 L10.999,0.695 C10.999,0.382 11.210,0.129 11.491,0.050 C11.773,0.129 11.984,0.382 11.984,0.695 L11.984,1.834 L13.540,1.037 L23.000,4.000 L11.984,4.000 L11.984,5.974 L44.987,5.974 L44.987,4.000 L34.000,4.000 L43.447,1.037 L44.987,1.826 L44.987,0.695 C44.987,0.376 45.206,0.120 45.495,0.047 C45.784,0.120 46.003,0.376 46.003,0.695 L46.003,1.770 L47.434,1.037 L57.000,4.000 L46.003,4.000 ZM11.663,0.015 C11.602,0.015 11.547,0.035 11.491,0.050 C11.435,0.035 11.381,0.015 11.320,0.015 L11.663,0.015 ZM45.651,0.015 C45.596,0.015 45.546,0.034 45.495,0.047 C45.444,0.034 45.395,0.015 45.339,0.015 L45.651,0.015 Z"/>
</svg>
