<svg xmlns="http://www.w3.org/2000/svg" xmlns:xlink="http://www.w3.org/1999/xlink" preserveAspectRatio="xMidYMid" width="10" height="12" viewBox="0 0 10 12">
  <path d="M5.000,0.000 C2.149,0.000 0.000,2.150 0.000,5.000 C0.000,8.587 4.648,11.817 4.846,11.953 C4.892,11.984 4.946,12.000 5.000,12.000 C5.054,12.000 5.108,11.984 5.154,11.953 C5.352,11.817 10.000,8.587 10.000,5.000 C10.000,2.150 7.850,0.000 5.000,0.000 ZM5.000,8.000 C3.192,8.000 2.000,6.853 2.000,5.000 C2.000,3.147 3.231,2.000 5.000,2.000 C6.769,2.000 8.000,3.177 8.000,5.000 C8.000,6.823 6.808,8.000 5.000,8.000 Z"/>
</svg>
