<svg xmlns="http://www.w3.org/2000/svg" xmlns:xlink="http://www.w3.org/1999/xlink" preserveAspectRatio="xMidYMid" width="15" height="10" viewBox="0 0 15 10">
  <path d="M3.000,10.000 L3.000,8.000 L15.000,8.000 L15.000,10.000 L3.000,10.000 ZM3.000,4.000 L15.000,4.000 L15.000,6.000 L3.000,6.000 L3.000,4.000 ZM3.000,0.000 L15.000,0.000 L15.000,2.000 L3.000,2.000 L3.000,0.000 ZM0.000,8.000 L2.000,8.000 L2.000,10.000 L0.000,10.000 L0.000,8.000 ZM0.000,4.000 L2.000,4.000 L2.000,6.000 L0.000,6.000 L0.000,4.000 ZM0.000,0.000 L2.000,0.000 L2.000,2.000 L0.000,2.000 L0.000,0.000 Z" />
</svg>
