<svg xmlns="http://www.w3.org/2000/svg" xmlns:xlink="http://www.w3.org/1999/xlink" preserveAspectRatio="xMidYMid" width="14" height="12" viewBox="0 0 14 12">
  <path d="M12.056,1.614 C10.859,0.520 9.300,-0.055 7.662,0.004 C5.987,0.062 4.456,0.758 3.349,1.966 C2.559,2.829 2.045,3.903 1.835,5.090 L1.067,3.958 C0.889,3.695 0.527,3.623 0.258,3.798 C-0.010,3.973 -0.084,4.327 0.095,4.591 L1.841,7.166 C1.848,7.176 1.857,7.183 1.864,7.192 C1.872,7.203 1.882,7.213 1.891,7.224 C1.908,7.243 1.925,7.262 1.944,7.278 C1.955,7.288 1.968,7.295 1.979,7.304 C2.013,7.329 2.049,7.350 2.088,7.367 C2.107,7.376 2.126,7.385 2.145,7.392 C2.164,7.398 2.183,7.400 2.202,7.404 C2.224,7.409 2.247,7.414 2.270,7.417 C2.276,7.417 2.282,7.420 2.288,7.420 C2.301,7.421 2.314,7.422 2.327,7.422 C2.335,7.422 2.342,7.419 2.350,7.419 C2.358,7.419 2.366,7.420 2.374,7.420 C2.390,7.419 2.405,7.414 2.421,7.412 C2.436,7.409 2.450,7.408 2.465,7.404 C2.495,7.397 2.525,7.387 2.553,7.376 C2.560,7.373 2.566,7.371 2.573,7.368 C2.657,7.330 2.730,7.274 2.786,7.205 L4.814,4.945 C5.027,4.707 5.003,4.346 4.761,4.138 C4.518,3.930 4.149,3.953 3.937,4.190 L2.998,5.236 C3.177,4.280 3.588,3.418 4.219,2.730 C5.111,1.755 6.348,1.193 7.702,1.147 C9.028,1.104 10.291,1.564 11.260,2.450 C12.229,3.335 12.789,4.537 12.835,5.834 C12.881,7.131 12.409,8.367 11.505,9.317 C10.601,10.266 9.373,10.813 8.048,10.858 C7.726,10.870 7.474,11.134 7.485,11.450 C7.496,11.758 7.755,12.001 8.068,12.001 C8.075,12.001 8.082,12.001 8.089,12.001 C9.726,11.945 11.242,11.269 12.359,10.096 C13.476,8.924 14.060,7.396 14.002,5.794 C13.945,4.192 13.254,2.707 12.056,1.614 Z"/>
</svg>
