<svg xmlns="http://www.w3.org/2000/svg" xmlns:xlink="http://www.w3.org/1999/xlink" preserveAspectRatio="xMidYMid" width="7" height="18" viewBox="0 0 7 18">
  <path d="M6.000,12.000 L6.000,2.000 C6.000,0.966 5.209,-0.000 3.500,-0.000 C1.792,-0.000 1.000,0.966 1.000,2.000 L1.000,12.000 C0.469,12.249 0.000,13.177 0.000,14.446 C0.000,16.307 1.283,18.000 3.500,18.000 C5.717,18.000 7.000,16.415 7.000,14.554 C7.000,13.306 6.616,12.298 6.000,12.000 ZM3.500,16.020 C2.624,16.020 2.005,15.247 2.005,14.497 C2.005,13.746 2.548,13.155 3.000,13.000 L3.000,4.000 L4.000,4.000 L4.000,13.000 C4.452,13.155 5.000,13.800 5.000,14.491 C5.000,15.183 4.375,16.020 3.500,16.020 Z"/>
</svg>
