<svg xmlns="http://www.w3.org/2000/svg" xmlns:xlink="http://www.w3.org/1999/xlink" preserveAspectRatio="xMidYMid" width="18" height="18" viewBox="0 0 18 18">
  <path d="M6.375,12.750 C7.870,12.750 9.243,12.229 10.330,11.364 L16.712,17.779 C16.859,17.926 17.051,18.000 17.243,18.000 C17.435,18.000 17.626,17.927 17.772,17.782 C18.065,17.489 18.067,17.015 17.775,16.721 L11.386,10.299 C12.235,9.215 12.746,7.855 12.746,6.375 C12.746,2.860 9.889,-0.000 6.375,-0.000 C2.863,-0.000 0.005,2.860 0.005,6.375 C0.005,9.890 2.863,12.750 6.375,12.750 ZM3.000,6.000 L10.000,6.000 L10.000,7.000 L3.000,7.000 L3.000,6.000 Z"/>
</svg>
