<svg xmlns="http://www.w3.org/2000/svg" xmlns:xlink="http://www.w3.org/1999/xlink" preserveAspectRatio="xMidYMid" width="18" height="18" viewBox="0 0 18 18">
  <path d="M6.376,12.750 C7.863,12.750 9.229,12.234 10.314,11.376 L16.714,17.780 C16.860,17.927 17.052,18.000 17.244,18.000 C17.436,18.000 17.628,17.927 17.774,17.780 C18.067,17.487 18.067,17.013 17.774,16.720 L11.374,10.316 C12.231,9.230 12.747,7.863 12.747,6.375 C12.747,2.860 9.889,0.000 6.376,0.000 C2.863,0.000 0.005,2.860 0.005,6.375 C0.005,9.890 2.863,12.750 6.376,12.750 ZM3.000,6.000 L6.001,6.000 L6.000,3.000 L7.000,3.000 L7.000,6.000 L10.000,6.000 L10.000,7.000 L7.000,7.000 L7.000,10.000 L6.000,10.000 L6.000,7.000 L3.000,7.000 L3.000,6.000 Z"/>
</svg>
