<?xml version="1.0" encoding="UTF-8" standalone="no"?>
<svg width="50px" height="43px" viewBox="0 0 50 43" version="1.1" xmlns="http://www.w3.org/2000/svg" xmlns:xlink="http://www.w3.org/1999/xlink">
    <!-- Generator: sketchtool 3.8.3 (29802) - http://www.bohemiancoding.com/sketch -->
    <title>A7E75EE1-73EC-436D-AF33-209FF76B1FBC</title>
    <desc>Created with sketchtool.</desc>
    <defs>
        <linearGradient x1="50%" y1="0%" x2="50%" y2="100%" id="linearGradient-1">
            <stop stop-color="#FFFFFF" offset="0%"></stop>
            <stop stop-color="#D3D3D3" offset="100%"></stop>
        </linearGradient>
    </defs>
    <g id="Create-Account" stroke="none" stroke-width="1" fill="none" fill-rule="evenodd">
        <g id="createaccount-1" transform="translate(-627.000000, -88.000000)">
            <g id="Modal" transform="translate(391.000000, 48.000000)">
                <g id="logo" transform="translate(233.000000, 40.000000)">
                    <path d="M27.6191823,0.614535132 C16.1069399,0.614535132 6.74121864,10.1313164 6.74121864,21.8292401 C6.74121864,33.1148988 15.5716671,42.3691862 26.5238126,43.0076847 L26.5238126,40.621592 C16.8640792,39.9878231 9.08400652,31.8016413 9.08400652,21.8292401 C9.08400652,11.4437856 17.399352,2.99510991 27.6191823,2.99510991 C37.8390126,2.99510991 46.154358,11.4437856 46.154358,21.8292401 C46.154358,31.8000648 38.6000308,39.98467 28.9426247,40.621592 L28.9426247,43.0068964 C39.8932186,42.3668213 48.4971459,33.1133222 48.4971459,21.8292401 C48.4971459,10.1313164 39.1314247,0.614535132 27.6191823,0.614535132" id="Fill-1" fill="#0A92EA"></path>
                    <path d="M52.3314053,32.1115101 L29.3930295,8.87016352 C28.6855386,7.94552305 27.2589205,7.96286499 26.4397205,8.88750545 L3.58667803,32.1115101 C2.39278712,33.4594515 3.33378106,35.5507313 5.11879924,35.5507313 L22.5291265,31.2483547 L26.8632841,31.2483547 L26.8632841,25.1834069 C25.6057811,24.6907383 24.7128841,23.453943 24.7128841,22.0027383 C24.7128841,20.1179852 26.2163023,18.5903184 28.0703629,18.5903184 C29.9251992,18.5903184 31.4286174,20.1179852 31.4286174,22.0027383 C31.4286174,23.4523665 30.537272,24.6883735 29.282872,25.1826187 L29.282872,31.2483547 L33.4153326,31.2483547 L50.7992841,35.5507313 C52.5843023,35.5507313 53.5252962,33.4594515 52.3314053,32.1115101" id="Fill-5" fill="url(#linearGradient-1)"></path>
                </g>
            </g>
        </g>
    </g>
</svg>