<?xml version="1.0" encoding="UTF-8" standalone="no"?>
<svg width="16px" height="16px" viewBox="0 0 16 16" version="1.1" xmlns="http://www.w3.org/2000/svg" xmlns:xlink="http://www.w3.org/1999/xlink">
    <!-- Generator: sketchtool 39 (31667) - http://www.bohemiancoding.com/sketch -->
    <title>9525DDF2-944C-4752-A82F-F49EDCBB3000</title>
    <desc>Created with sketchtool.</desc>
    <defs></defs>
    <g id="Management-Assets" stroke="none" stroke-width="1" fill="none" fill-rule="evenodd">
        <g transform="translate(-413.000000, -289.000000)" id="icon-search" fill="#C4CCD5">
            <g transform="translate(413.000000, 289.000000)">
                <path d="M1.89830508,6.69022951 C1.89830508,4.01363934 4.14969492,1.83606557 6.91701695,1.83606557 C9.68433898,1.83606557 11.9355932,4.01363934 11.9355932,6.69022951 C11.9355932,9.36681967 9.68433898,11.5443934 6.91701695,11.5443934 C4.14969492,11.5443934 1.89830508,9.36681967 1.89830508,6.69022951 L1.89830508,6.69022951 Z M15.9852203,14.637377 L12.212339,10.9881967 C13.223322,9.82478689 13.8338983,8.3255082 13.8338983,6.69022951 C13.8338983,3.00118033 10.7311186,0 6.91701695,0 C3.10291525,0 0,3.00118033 0,6.69022951 C0,10.3792787 3.10291525,13.380459 6.91701695,13.380459 C8.35661017,13.380459 9.69450847,12.9523934 10.8028475,12.2217705 L14.6427119,15.9357377 L15.9852203,14.637377 Z"></path>
            </g>
        </g>
    </g>
</svg>