<svg version="1.1" id="Layer_1" xmlns="http://www.w3.org/2000/svg" xmlns:xlink="http://www.w3.org/1999/xlink" x="0px" y="0px"
	 viewBox="0 0 24 24" style="enable-background:new 0 0 24 24;" xml:space="preserve">
<g>
	<path d="M18,3.7L18,3.7l-5.9-3.6l0,0l0,0l0,0l0,0L6.1,3.6l0,0v11.8l5.9,3.6v0l5.9-3.6L18,3.7L18,3.7z M12.9,17.4h-1.7
		v-1.7h1.7V17.4z M14.9,13.2l-1.9-1.9v3.9h-1.7v-3.9l-1.9,1.9L8.1,12l4-4l4,4L14.9,13.2z M12.1,7.3L12.1,7.3L7.5,4.5l4.6-2.7
		l4.6,2.8L12.1,7.3z"/>
	<ellipse transform="matrix(0.733 -0.6803 0.6803 0.733 -11.7173 14.0208)" cx="12" cy="21.9" rx="2" ry="2"/>
	<ellipse transform="matrix(0.733 -0.6803 0.6803 0.733 -10.3659 6.174)" cx="2.7" cy="16.3" rx="2" ry="2"/>
	<line x1="5.2" y1="17.8" x2="9.5" y2="20.4"/>
	<ellipse transform="matrix(0.6803 -0.733 0.733 0.6803 -5.1239 20.8344)" cx="21.3" cy="16.3" rx="2" ry="2"/>
	<line x1="18.8" y1="17.8" x2="14.5" y2="20.4"/>
</g>
</svg>
