<?xml version="1.0" encoding="utf-8"?>
<!-- Generator: Adobe Illustrator 20.0.0, SVG Export Plug-In . SVG Version: 6.00 Build 0)  -->
<svg version="1.1" id="Layer_1" xmlns="http://www.w3.org/2000/svg" xmlns:xlink="http://www.w3.org/1999/xlink" x="0px" y="0px"
	 viewBox="0 0 25.2 22.7" style="enable-background:new 0 0 25.2 22.7;" xml:space="preserve">
<style type="text/css">
	.chat-st0{fill:none;stroke:#FFFFFF;stroke-miterlimit:10;}
	.chat-st1{fill:#FFFFFF;}
</style>
<g>
	<path class="chat-st0" d="M23.8,10.3h-11c-0.5,0-1,0.5-1,1v6.1c0,0.5,0.5,1,1,1h7.6l3,3v-3h0.3c0.5,0,1-0.5,1-1v-6.1
		C24.8,10.8,24.3,10.3,23.8,10.3z"/>
	<path class="chat-st1" d="M0,1.7v10.2c0,0.9,0.8,1.7,1.7,1.7h0.4v5.1l5.1-5.1h12.7c0.9,0,1.7-0.8,1.7-1.7V1.7c0-0.9-0.8-1.7-1.7-1.7H1.7
		C0.8,0,0,0.8,0,1.7z M14.2,6.8c0-0.9,0.8-1.7,1.7-1.7s1.7,0.8,1.7,1.7s-0.8,1.7-1.7,1.7S14.2,7.7,14.2,6.8z M9.1,6.8
		c0-0.9,0.8-1.7,1.7-1.7s1.7,0.8,1.7,1.7s-0.8,1.7-1.7,1.7S9.1,7.7,9.1,6.8z M4,6.8c0-0.9,0.8-1.7,1.7-1.7s1.7,0.8,1.7,1.7
		S6.6,8.5,5.7,8.5S4,7.7,4,6.8z"/>
</g>
</svg>
