<?xml version="1.0" encoding="utf-8"?>
<!-- Generator: Adobe Illustrator 20.1.0, SVG Export Plug-In . SVG Version: 6.00 Build 0)  -->
<svg version="1.1" id="Layer_1" xmlns="http://www.w3.org/2000/svg" xmlns:xlink="http://www.w3.org/1999/xlink" x="0px" y="0px"
	 viewBox="0 0 30.3 28.9" style="enable-background:new 0 0 30.3 28.9;" xml:space="preserve">
<style type="text/css">
	.coll-st0{fill:#FFFFFF;}
	.coll-st1{fill:none;stroke:#FFFFFF;stroke-width:1.3419;stroke-miterlimit:10;}
</style>
<g>
	<path class="coll-st0" d="M15.2,20.9c-2.2,0-4,1.8-4,4c0,2.2,1.8,4,4,4s4-1.8,4-4C19.2,22.7,17.4,20.9,15.2,20.9z"/>
	<ellipse transform="matrix(0.6607 -0.7506 0.7506 0.6607 2.6669 12.4761)" class="coll-st1" cx="15.1" cy="3.3" rx="2.6" ry="2.6"/>
	<ellipse transform="matrix(0.9475 -0.3197 0.3197 0.9475 -3.065 1.5826)" class="coll-st1" cx="3.3" cy="10.1" rx="2.6" ry="2.6"/>
	<g>
		<path class="coll-st0" d="M8.8,6.9C8.6,6.6,8.1,6.5,7.7,6.7C7.4,6.9,7.2,7.4,7.5,7.7S8.2,8.2,8.5,8C8.9,7.8,9,7.3,8.8,6.9z"/>
		<path class="coll-st0" d="M11,5.7c-0.2-0.4-0.7-0.5-1.1-0.3C9.5,5.6,9.4,6.1,9.6,6.5s0.7,0.5,1.1,0.3C11.1,6.5,11.2,6,11,5.7z"/>
	</g>
	<ellipse transform="matrix(0.3197 -0.9475 0.9475 0.3197 8.7605 32.4562)" class="coll-st1" cx="27" cy="10.1" rx="2.6" ry="2.6"/>
	<g>
		<path class="coll-st0" d="M21.5,6.9c0.2-0.4,0.7-0.5,1.1-0.3c0.4,0.2,0.5,0.7,0.3,1.1S22.1,8.2,21.7,8C21.4,7.8,21.2,7.3,21.5,6.9z"/>
		<path class="coll-st0" d="M19.3,5.7c0.2-0.4,0.7-0.5,1.1-0.3c0.4,0.2,0.5,0.7,0.3,1.1S20,7,19.6,6.7C19.2,6.5,19.1,6,19.3,5.7z"/>
	</g>
	<path class="coll-st0" d="M15.1,10.6c-0.4,0-0.8,0.3-0.8,0.8c0,0.4,0.4,0.8,0.8,0.8c0.4,0,0.8-0.4,0.8-0.8C15.9,11,15.6,10.6,15.1,10.6z
		"/>
	<path class="coll-st0" d="M15.1,8.1c-0.4,0-0.8,0.4-0.8,0.8c0,0.4,0.4,0.8,0.8,0.8c0.4,0,0.8-0.3,0.8-0.8C15.9,8.5,15.6,8.1,15.1,8.1z"
		/>
	<path class="coll-st0" d="M15.1,10.6c-0.4,0-0.8,0.4-0.8,0.8c0,0.4,0.4,0.8,0.8,0.8c0.4,0,0.8-0.3,0.8-0.8C15.9,11,15.6,10.6,15.1,10.6z
		"/>
	<path class="coll-st0" d="M15.1,13.1c-0.4,0-0.8,0.4-0.8,0.8c0,0.4,0.4,0.8,0.8,0.8c0.4,0,0.8-0.3,0.8-0.8
		C15.9,13.5,15.6,13.1,15.1,13.1z"/>
	<path class="coll-st0" d="M15.1,15.6c-0.4,0-0.8,0.4-0.8,0.8c0,0.4,0.4,0.8,0.8,0.8c0.4,0,0.8-0.3,0.8-0.8C15.9,16,15.6,15.6,15.1,15.6z
		"/>
	<path class="coll-st0" d="M15.1,18.1c-0.4,0-0.8,0.4-0.8,0.8c0,0.4,0.4,0.8,0.8,0.8c0.4,0,0.8-0.3,0.8-0.8
		C15.9,18.5,15.6,18.1,15.1,18.1z"/>
	<g>
		<path class="coll-st0" d="M7.9,15.6c-0.3,0.3-0.4,0.8-0.1,1.1C8.1,17,8.6,17,8.9,16.7C9.3,16.5,9.3,16,9,15.6S8.3,15.3,7.9,15.6z"/>
		<path class="coll-st0" d="M6.3,13.7c-0.3,0.3-0.4,0.8-0.1,1.1s0.8,0.4,1.1,0.1s0.4-0.8,0.1-1.1C7.1,13.4,6.6,13.4,6.3,13.7z"/>
		<path class="coll-st0" d="M7.9,15.6c-0.3,0.3-0.4,0.8-0.1,1.1C8.1,17,8.6,17,8.9,16.7C9.3,16.5,9.3,16,9,15.6
			C8.8,15.3,8.3,15.3,7.9,15.6z"/>
		<path class="coll-st0" d="M9.5,17.5c-0.3,0.3-0.4,0.8-0.1,1.1c0.3,0.3,0.8,0.4,1.1,0.1c0.3-0.3,0.4-0.8,0.1-1.1
			C10.4,17.2,9.9,17.2,9.5,17.5z"/>
		<path class="coll-st0" d="M11.2,19.4c-0.3,0.3-0.4,0.8-0.1,1.1s0.8,0.4,1.1,0.1c0.3-0.3,0.4-0.8,0.1-1.1C12,19.1,11.5,19.1,11.2,19.4z"
			/>
		<path class="coll-st0" d="M7.9,15.6c-0.3,0.3-0.4,0.8-0.1,1.1C8.1,17,8.6,17,8.9,16.7C9.3,16.5,9.3,16,9,15.6S8.3,15.3,7.9,15.6z"/>
		<path class="coll-st0" d="M6.3,13.7c-0.3,0.3-0.4,0.8-0.1,1.1s0.8,0.4,1.1,0.1s0.4-0.8,0.1-1.1C7.1,13.4,6.6,13.4,6.3,13.7z"/>
		<path class="coll-st0" d="M7.9,15.6c-0.3,0.3-0.4,0.8-0.1,1.1C8.1,17,8.6,17,8.9,16.7C9.3,16.5,9.3,16,9,15.6
			C8.8,15.3,8.3,15.3,7.9,15.6z"/>
		<path class="coll-st0" d="M9.5,17.5c-0.3,0.3-0.4,0.8-0.1,1.1c0.3,0.3,0.8,0.4,1.1,0.1c0.3-0.3,0.4-0.8,0.1-1.1
			C10.4,17.2,9.9,17.2,9.5,17.5z"/>
		<path class="coll-st0" d="M11.2,19.4c-0.3,0.3-0.4,0.8-0.1,1.1s0.8,0.4,1.1,0.1c0.3-0.3,0.4-0.8,0.1-1.1C12,19.1,11.5,19.1,11.2,19.4z"
			/>
	</g>
	<g>
		<path class="coll-st0" d="M22.6,15.6c0.3,0.3,0.4,0.8,0.1,1.1c-0.3,0.3-0.8,0.4-1.1,0.1c-0.3-0.3-0.4-0.8-0.1-1.1
			C21.7,15.3,22.2,15.3,22.6,15.6z"/>
		<path class="coll-st0" d="M24.2,13.7c0.3,0.3,0.4,0.8,0.1,1.1c-0.3,0.3-0.8,0.4-1.1,0.1s-0.4-0.8-0.1-1.1
			C23.4,13.4,23.9,13.4,24.2,13.7z"/>
		<path class="coll-st0" d="M22.6,15.6c0.3,0.3,0.4,0.8,0.1,1.1s-0.8,0.4-1.1,0.1c-0.3-0.3-0.4-0.8-0.1-1.1
			C21.7,15.3,22.2,15.3,22.6,15.6z"/>
		<path class="coll-st0" d="M20.9,17.5c0.3,0.3,0.4,0.8,0.1,1.1c-0.3,0.3-0.8,0.4-1.1,0.1c-0.3-0.3-0.4-0.8-0.1-1.1
			C20.1,17.2,20.6,17.2,20.9,17.5z"/>
		<path class="coll-st0" d="M19.3,19.4c0.3,0.3,0.4,0.8,0.1,1.1c-0.3,0.3-0.8,0.4-1.1,0.1c-0.3-0.3-0.4-0.8-0.1-1.1
			C18.5,19.1,19,19.1,19.3,19.4z"/>
		<path class="coll-st0" d="M22.6,15.6c0.3,0.3,0.4,0.8,0.1,1.1c-0.3,0.3-0.8,0.4-1.1,0.1c-0.3-0.3-0.4-0.8-0.1-1.1
			C21.7,15.3,22.2,15.3,22.6,15.6z"/>
		<path class="coll-st0" d="M24.2,13.7c0.3,0.3,0.4,0.8,0.1,1.1c-0.3,0.3-0.8,0.4-1.1,0.1s-0.4-0.8-0.1-1.1
			C23.4,13.4,23.9,13.4,24.2,13.7z"/>
		<path class="coll-st0" d="M22.6,15.6c0.3,0.3,0.4,0.8,0.1,1.1s-0.8,0.4-1.1,0.1c-0.3-0.3-0.4-0.8-0.1-1.1
			C21.7,15.3,22.2,15.3,22.6,15.6z"/>
		<path class="coll-st0" d="M20.9,17.5c0.3,0.3,0.4,0.8,0.1,1.1c-0.3,0.3-0.8,0.4-1.1,0.1c-0.3-0.3-0.4-0.8-0.1-1.1
			C20.1,17.2,20.6,17.2,20.9,17.5z"/>
		<path class="coll-st0" d="M19.3,19.4c0.3,0.3,0.4,0.8,0.1,1.1c-0.3,0.3-0.8,0.4-1.1,0.1c-0.3-0.3-0.4-0.8-0.1-1.1
			C18.5,19.1,19,19.1,19.3,19.4z"/>
	</g>
</g>
</svg>
