<?xml version="1.0" encoding="utf-8"?>
<!-- Generator: Adobe Illustrator 20.1.0, SVG Export Plug-In . SVG Version: 6.00 Build 0)  -->
<svg version="1.1" id="Layer_1" xmlns="http://www.w3.org/2000/svg" xmlns:xlink="http://www.w3.org/1999/xlink" x="0px" y="0px"
	 viewBox="0 0 16.4 14.8" style="enable-background:new 0 0 16.4 14.8;" xml:space="preserve">
<style type="text/css">
	.ownersession-st0{clip-path:url(#SVGID_2_);}
</style>
<g>
	<defs>
		<path id="SVGID_1_" d="M16.1,13.2c-0.4-2.1-4.5-1.9-5.9-3.6C9.9,9.3,9.9,9.3,10.1,8c0.3-1.2,0.5-0.8,0.8-2.1
			c0.3,0,0.5-0.3,0.5-0.7c0-0.4,0.2-0.5,0.2-1c0-0.3-0.2-0.3-0.3-0.2C11.5,1.8,10.6,0,8.2,0C5.8,0,4.9,1.9,5.1,4.1
			C4.9,4,4.8,4,4.8,4.3c0,0.4,0.2,0.6,0.2,1c0,0.4,0.2,0.7,0.5,0.7C5.8,7.2,6,6.9,6.3,8c0.2,1.3,0.2,1.3-0.1,1.7
			c-1.4,1.7-5.5,1.4-5.9,3.5c0,0.3-0.3,1.6-0.3,1.6h16.4C16.4,14.8,16.2,13.5,16.1,13.2z"/>
	</defs>
	<use xlink:href="#SVGID_1_"  style="overflow:visible;fill-rule:evenodd;clip-rule:evenodd;fill:#FFFFFF;"/>
	<clipPath id="SVGID_2_">
		<use xlink:href="#SVGID_1_"  style="overflow:visible;"/>
	</clipPath>
	<g class="ownersession-st0">
		<defs>
			<rect id="SVGID_3_" x="-86" y="-287" width="834" height="409"/>
		</defs>
		<use xlink:href="#SVGID_3_"  style="overflow:visible;fill:#FFFFFF;"/>
		<clipPath id="SVGID_4_">
			<use xlink:href="#SVGID_3_"  style="overflow:visible;"/>
		</clipPath>
	</g>
</g>
</svg>
