<svg version="1.1" id="Layer_1" xmlns="http://www.w3.org/2000/svg" xmlns:xlink="http://www.w3.org/1999/xlink" x="0px" y="0px"
	 viewBox="0 0 24 24" style="enable-background:new 0 0 24 24;" xml:space="preserve">
<path d="M22.3,7.3V5.6h-1.2V2.3h0l-1.3-2.2l-1.3,2.2v3.3h-1.4V2.3h0l-1.3-2.2l-1.3,2.2v3.3h-1.4V2.3h0L12,0.1l-1.3,2.2
	v3.3H9.4V2.3h0L8.1,0.1L6.8,2.3v3.3H5.5V2.3h0L4.2,0.1L2.9,2.3v3.3H1.7v1.7h1.2v11.4H1.7v1.7h1.2v3.4h2.5v-3.4h1.4v3.4h2.5v-3.4h1.4
	v3.4h2.5v-3.4h1.4v3.4h2.5v-3.4h1.4v3.4h2.5v-3.4h1.2v-1.7h-1.2V7.3H22.3z M5.5,18.8V7.3h1.4v11.4H5.5z M9.4,18.8V7.3h1.4v11.4H9.4z
	 M13.3,18.8V7.3h1.4v11.4H13.3z M18.5,18.8h-1.4V7.3h1.4V18.8z"/>
</svg>
