<?xml version="1.0" encoding="utf-8"?>
<!-- Generator: Adobe Illustrator 20.1.0, SVG Export Plug-In . SVG Version: 6.00 Build 0)  -->
<svg version="1.1" id="Layer_1" xmlns="http://www.w3.org/2000/svg" xmlns:xlink="http://www.w3.org/1999/xlink" x="0px" y="0px"
	 viewBox="0 0 24 24" style="enable-background:new 0 0 24 24;" xml:space="preserve">
<style type="text/css">
	.st0{fill:#FFFFFF;}
</style>
<path class="st0" d="M12,22C6.5,22,1.9,17.5,1.9,12S6.5,1.9,12,1.9S22.1,6.4,22.1,12S17.6,22,12,22z M12,4.2c-4.3,0-7.8,3.5-7.8,7.8
	c0,4.3,3.5,7.8,7.8,7.8c4.3,0,7.8-3.5,7.8-7.8C19.8,7.7,16.3,4.2,12,4.2z"/>
<circle class="st0" cx="12" cy="12" r="2.9"/>
<rect x="20.5" y="10.9" class="st0" width="3.5" height="2.2"/>
<rect y="10.9" class="st0" width="3.5" height="2.2"/>
<rect x="10.9" class="st0" width="2.2" height="3.4"/>
<rect x="10.9" y="20.5" class="st0" width="2.2" height="3.5"/>
</svg>
