<?xml version="1.0" encoding="utf-8"?>
<!-- Generator: Adobe Illustrator 20.1.0, SVG Export Plug-In . SVG Version: 6.00 Build 0)  -->
<svg version="1.1" id="Layer_1" xmlns="http://www.w3.org/2000/svg" xmlns:xlink="http://www.w3.org/1999/xlink" x="0px" y="0px"
	 viewBox="0 0 20 27" style="enable-background:new 0 0 20 27;" xml:space="preserve">
<style type="text/css">
	.st0{fill:#FFFFFF;}
</style>
<path class="st0" d="M0,13.2v7.5c0,0.4,0.1,0.6,0.3,0.9l4.9,4.9c0.7,0.7,1.8,0.6,2.5-0.1l4.1-4.1l0.1-0.1l1.2-1.2
	c0.5-0.5,0.5-1.2,0-1.6l0,0c-0.4-0.4-1-0.4-1.5-0.1c-0.1,0.1-0.2,0.1-0.3,0l-0.1-0.1c-0.1-0.1-0.1-0.2,0-0.3
	c0.3-0.5,0.3-1.1-0.1-1.5l0,0c-0.4-0.4-1-0.4-1.5-0.1c-0.1,0.1-0.2,0.1-0.3,0l-0.1-0.1c-0.1-0.1-0.1-0.2,0-0.3
	c0.3-0.5,0.3-1.1-0.1-1.5l0,0c-0.4-0.4-1-0.4-1.5-0.1c-0.1,0.1-0.2,0.1-0.3,0l-0.1-0.1c0,0-0.1-0.1-0.1-0.2c0-0.1,0-0.1,0.1-0.2
	l3.7-3.7c0.5-0.5,0.5-1.2,0-1.6l0,0C10.7,9,10,9,9.5,9.5C7,12,5.1,13.9,2.6,16.4l-0.1-3.3C2.5,11.5,0,11.5,0,13.2z"/>
<g>
	<circle class="st0" cx="12.7" cy="7.3" r="1.8"/>
	<path class="st0" d="M18.6,6.5c-0.4-2.7-2.5-4.8-5.1-5.1V0h-1.6v1.4C9.2,1.7,7.1,3.9,6.7,6.6H5.3v1.6h1.5c0.4,2.6,2.4,4.6,5,5v1.5
		h1.8v-1.5c2.6-0.4,4.7-2.5,5-5.1H20V6.5H18.6z M12.7,11.7c-2.4,0-4.4-2-4.4-4.4c0-2.4,2-4.4,4.4-4.4c2.5,0,4.4,2,4.4,4.4
		C17.1,9.7,15.1,11.7,12.7,11.7z"/>
</g>
</svg>
