<?xml version="1.0" encoding="utf-8"?>
<!-- Generator: Adobe Illustrator 20.1.0, SVG Export Plug-In . SVG Version: 6.00 Build 0)  -->
<svg version="1.1" id="Layer_1" xmlns="http://www.w3.org/2000/svg" xmlns:xlink="http://www.w3.org/1999/xlink" x="0px" y="0px"
	 viewBox="0 0 32.3 25.3" style="enable-background:new 0 0 32.3 25.3;" xml:space="preserve">
<style type="text/css">
	.st0{fill:#FFFFFF;}
	.st1{fill:#FFFFFF;stroke:#383D45;stroke-width:0.9;stroke-miterlimit:10;}
</style>
<path class="st0" d="M11.9,9.5c-0.5,0-1-0.4-1-1V1c0-0.5,0.4-1,1-1s1,0.4,1,1v7.5C12.9,9,12.4,9.5,11.9,9.5z"/>
<path class="st0" d="M20.4,9.5c-0.5,0-1-0.4-1-1V1c0-0.5,0.4-1,1-1s1,0.4,1,1v7.5C21.4,9,20.9,9.5,20.4,9.5z"/>
<g>
	<circle class="st0" cx="20.4" cy="14.4" r="1.8"/>
	<path class="st0" d="M8.1,8.5c-0.9,0.1-1.6,0.8-1.6,1.7v8.4c0,0.9,0.7,1.6,1.6,1.6H24c0.9,0,1.6-0.7,1.6-1.6v-8.4
		c0-0.9-0.7-1.7-1.6-1.7H8.1z M11.9,17.9c-1.9,0-3.5-1.6-3.5-3.5S10,11,11.9,11s3.5,1.6,3.5,3.5S13.8,17.9,11.9,17.9z M20.4,17.9
		c-1.9,0-3.5-1.6-3.5-3.5s1.6-3.5,3.5-3.5c1.9,0,3.5,1.6,3.5,3.5S22.3,17.9,20.4,17.9z"/>
	<circle class="st0" cx="11.9" cy="14.4" r="1.8"/>
</g>
<path class="st1" d="M0.7,14.9l-0.3,1.6c0,0.2,0,0.3,0,0.5L2,24.9h5.5L7.4,23c0-0.3,0-0.6,0.1-0.9L9,19.1c0,0,0.9-0.9,2.1-2.1
	c0.2-0.2,2.4-1.7,0.9-3.2c-0.9-0.9-1.9,0-3,1.1c-1.3,1.3-2.2,1.9-2.8,2.1c-0.7,0.2-1.4-0.5-1.4-1.1c0-0.3,0.5-1.5,1.3-2.3
	c0-2.3,0-4.2,0-4.2l-4.9,5C0.9,14.5,0.8,14.7,0.7,14.9z"/>
<path class="st1" d="M31.2,14.3l-4.9-5c0,0,0,1.9,0,4.2c0.8,0.8,1.3,2,1.3,2.3c0,0.6-0.7,1.3-1.4,1.1c-0.6-0.1-1.4-0.7-2.8-2.1
	c-1-1.1-2.1-2-3-1.1c-1.5,1.5,0.7,3.1,0.9,3.2c1.2,1.2,2.1,2.1,2.1,2.1l1.4,3.1c0.1,0.3,0.2,0.6,0.1,0.9l-0.1,1.8h5.5l1.6-7.9
	c0-0.2,0-0.3,0-0.5l-0.3-1.6C31.5,14.7,31.3,14.5,31.2,14.3z"/>
</svg>
