<?xml version="1.0" encoding="UTF-8" standalone="no"?>
<svg width="25px" height="24px" viewBox="0 0 25 24" version="1.1" xmlns="http://www.w3.org/2000/svg" xmlns:xlink="http://www.w3.org/1999/xlink">
    <!-- Generator: Sketch 39.1 (31720) - http://www.bohemiancoding.com/sketch -->
    <title>Page 1</title>
    <desc>Created with Sketch.</desc>
    <defs></defs>
    <g id="Flight-Control" stroke="none" stroke-width="1" fill="none" fill-rule="evenodd">
        <g id="Flight-Control---GPS" transform="translate(-30.000000, -232.000000)" fill="#FFFFFF">
            <g id="modes" transform="translate(20.000000, 114.000000)">
                <g id="actions">
                    <g id="Return-to-Home" transform="translate(0.000000, 108.000000)">
                        <g id="Page-1" transform="translate(10.500000, 10.000000)">
                            <g>
                                <path d="M11.9091789,0 C5.34233684,0 0.00012631579,5.38168421 0.00012631579,11.9968421 C0.00012631579,18.612 5.34233684,23.994 11.9091789,23.994 C18.4760211,23.994 23.8182316,18.612 23.8182316,11.9968421 C23.8182316,5.38168421 18.4760211,0 11.9091789,0 M11.9091789,2.21052632 C17.2656,2.21052632 21.6077053,6.59210526 21.6077053,11.9968421 C21.6077053,17.4018947 17.2656,21.7834737 11.9091789,21.7834737 C6.55275789,21.7834737 2.21065263,17.4018947 2.21065263,11.9968421 C2.21065263,6.59210526 6.55275789,2.21052632 11.9091789,2.21052632" id="Fill-1"></path>
                                <polygon id="Fill-4" points="7.59999847 17.5 7.59999847 6.5 9.88362325 6.5 9.88362325 10.6940183 14.1592347 10.6940183 14.1592347 6.5 16.4435148 6.5 16.4435148 17.5 14.1592347 17.5 14.1592347 12.5896661 9.88362325 12.5896661 9.88362325 17.5"></polygon>
                            </g>
                        </g>
                    </g>
                </g>
            </g>
        </g>
    </g>
</svg>