<?xml version="1.0" encoding="utf-8"?>
<!-- Generator: Adobe Illustrator 19.2.0, SVG Export Plug-In . SVG Version: 6.00 Build 0)  -->
<svg version="1.1" id="Layer_1" xmlns="http://www.w3.org/2000/svg" xmlns:xlink="http://www.w3.org/1999/xlink" x="0px" y="0px"
	 viewBox="0 0 23.8 24" style="enable-background:new 0 0 23.8 24;" xml:space="preserve">
<style type="text/css">
	.st0{fill:#FFFFFF;}
</style>
<title>Page 1</title>
<desc>Created with Sketch.</desc>
<g id="Flight-Control">
	<g id="Flight-Control---GPS" transform="translate(-30.000000, -286.000000)">
		<g id="modes" transform="translate(20.000000, 114.000000)">
			<g id="actions">
				<g id="Set-New-Home-Point" transform="translate(0.000000, 162.000000)">
					<g id="Page-1" transform="translate(10.500000, 10.000000)">
						<polygon id="Fill-1" class="st0" points="7.1,6.7 7.1,17.7 9.4,17.7 9.4,12.8 13.6,12.8 13.6,17.7 15.8,17.7 15.8,6.7 
							13.6,6.7 13.6,10.9 9.4,10.9 9.4,6.7 						"/>
						<path id="Fill-2" class="st0" d="M4.1,7.6h1.3V5.4h2.2V4.1H5.3V1.9H5c0,0,0,0,0,0H4.1v2.2H1.9v1.3h2.2V7.6z"/>
						<path id="Fill-4" class="st0" d="M11.4,0C9.8,0,8.2,0.3,6.9,0.9v1v0.6h0.6H9c0.8-0.3,1.6-0.3,2.4-0.3c5.4,0,9.7,4.4,9.7,9.8
							c0,5.4-4.3,9.8-9.7,9.8c-5.4,0-9.6-4.4-9.6-9.8c0-1.2,0.1-2.4,0.7-3.5V7.7V6.9H1.8H0.6c-0.7,1.6-1.1,3.2-1.1,5
							c0,6.6,5.3,12,11.9,12c6.6,0,11.9-5.4,11.9-12S18,0,11.4,0"/>
					</g>
				</g>
			</g>
		</g>
	</g>
</g>
</svg>
