<svg xmlns="http://www.w3.org/2000/svg" xmlns:xlink="http://www.w3.org/1999/xlink" preserveAspectRatio="xMidYMid" width="18" height="18" viewBox="0 0 18 18">
  <path d="M-0.000,18.000 L-0.000,7.000 L2.469,7.000 L4.625,4.594 L6.000,7.000 L8.000,4.469 L10.000,8.000 L12.281,4.000 L15.000,7.000 L18.000,7.000 L18.000,18.000 L-0.000,18.000 ZM3.273,12.682 C3.273,12.456 3.090,12.273 2.864,12.273 C2.638,12.273 2.454,12.456 2.454,12.682 L2.454,15.136 C2.454,15.362 2.638,15.545 2.864,15.545 C3.090,15.545 3.273,15.362 3.273,15.136 L3.273,12.682 ZM5.727,11.045 C5.727,10.819 5.544,10.636 5.318,10.636 C5.092,10.636 4.909,10.819 4.909,11.045 L4.909,15.136 C4.909,15.362 5.092,15.545 5.318,15.545 C5.544,15.545 5.727,15.362 5.727,15.136 L5.727,11.045 ZM8.182,12.682 C8.182,12.456 7.999,12.273 7.773,12.273 C7.547,12.273 7.364,12.456 7.364,12.682 L7.364,15.136 C7.364,15.362 7.547,15.545 7.773,15.545 C7.999,15.545 8.182,15.362 8.182,15.136 L8.182,12.682 ZM10.636,11.045 C10.636,10.819 10.453,10.636 10.227,10.636 C10.001,10.636 9.818,10.819 9.818,11.045 L9.818,15.136 C9.818,15.362 10.001,15.545 10.227,15.545 C10.453,15.545 10.636,15.362 10.636,15.136 L10.636,11.045 ZM13.091,12.682 C13.091,12.456 12.908,12.273 12.682,12.273 C12.456,12.273 12.273,12.456 12.273,12.682 L12.273,15.136 C12.273,15.362 12.456,15.545 12.682,15.545 C12.908,15.545 13.091,15.362 13.091,15.136 L13.091,12.682 ZM15.545,11.045 C15.545,10.819 15.362,10.636 15.136,10.636 C14.910,10.636 14.727,10.819 14.727,11.045 L14.727,15.136 C14.727,15.362 14.910,15.545 15.136,15.545 C15.362,15.545 15.545,15.362 15.545,15.136 L15.545,11.045 ZM12.219,2.375 L10.000,6.031 L8.031,2.875 L6.125,5.437 L4.719,3.000 L2.000,6.000 L-0.000,6.000 L-0.000,-0.000 L18.000,-0.000 L18.000,6.000 L15.406,6.000 L12.219,2.375 Z" />
</svg>
