<svg xmlns="http://www.w3.org/2000/svg" xmlns:xlink="http://www.w3.org/1999/xlink" preserveAspectRatio="xMidYMid" width="18" height="18" viewBox="0 0 18 18">
  <path d="M14.694,17.999 L6.613,17.999 C4.385,17.999 2.572,16.214 2.572,14.021 C2.572,13.901 2.578,13.782 2.588,13.664 C2.591,13.631 2.597,13.599 2.601,13.566 C2.610,13.482 2.620,13.397 2.635,13.315 C2.641,13.281 2.650,13.247 2.657,13.214 C2.674,13.133 2.691,13.052 2.713,12.973 C2.721,12.943 2.731,12.914 2.740,12.885 C2.764,12.803 2.790,12.721 2.820,12.641 C2.829,12.617 2.839,12.594 2.848,12.570 C2.882,12.486 2.917,12.402 2.955,12.320 C2.964,12.302 2.973,12.285 2.982,12.267 C3.025,12.181 3.070,12.096 3.119,12.013 C3.126,12.001 3.134,11.989 3.142,11.976 C3.194,11.890 3.249,11.805 3.308,11.723 C3.314,11.714 3.320,11.706 3.327,11.697 C3.388,11.613 3.452,11.531 3.520,11.451 C3.526,11.445 3.531,11.439 3.537,11.433 C3.606,11.353 3.679,11.275 3.754,11.201 C3.760,11.195 3.767,11.189 3.773,11.183 C3.848,11.110 3.926,11.041 4.007,10.974 C4.016,10.966 4.025,10.959 4.034,10.952 C4.042,10.945 4.051,10.939 4.060,10.932 C4.060,10.932 4.059,10.932 4.059,10.931 C4.525,10.560 5.079,10.285 5.698,10.146 C5.838,10.115 5.946,10.007 5.976,9.870 C6.407,7.881 8.220,6.437 10.286,6.437 C11.899,6.437 13.425,7.346 14.183,8.752 C14.220,8.822 14.257,8.891 14.290,8.963 C14.375,8.961 14.458,8.967 14.542,8.973 C14.606,8.978 14.670,8.986 14.733,8.996 C14.770,9.001 14.807,9.007 14.844,9.014 C14.905,9.026 14.965,9.041 15.024,9.057 C15.067,9.069 15.110,9.082 15.154,9.096 C15.202,9.113 15.251,9.130 15.298,9.149 C15.353,9.171 15.406,9.195 15.459,9.221 C15.494,9.238 15.529,9.255 15.563,9.273 C15.627,9.308 15.689,9.346 15.750,9.386 C15.773,9.401 15.797,9.415 15.819,9.431 C15.887,9.479 15.951,9.531 16.014,9.585 C16.029,9.599 16.046,9.611 16.061,9.625 C16.128,9.685 16.191,9.750 16.251,9.818 C16.261,9.829 16.272,9.838 16.282,9.850 C16.351,9.930 16.416,10.014 16.476,10.104 C16.527,10.180 16.573,10.259 16.615,10.339 C16.624,10.357 16.631,10.375 16.640,10.393 C16.671,10.457 16.701,10.521 16.727,10.586 C16.735,10.606 16.741,10.627 16.748,10.647 C16.772,10.712 16.793,10.776 16.811,10.842 C16.817,10.863 16.821,10.884 16.826,10.905 C16.842,10.971 16.856,11.037 16.866,11.103 C16.870,11.126 16.873,11.148 16.876,11.171 C16.884,11.235 16.890,11.299 16.893,11.364 C16.894,11.390 16.895,11.416 16.896,11.442 C16.897,11.502 16.895,11.562 16.892,11.623 C16.890,11.653 16.889,11.683 16.886,11.714 C16.881,11.769 16.872,11.824 16.864,11.880 C16.858,11.913 16.853,11.947 16.846,11.981 C16.830,12.061 16.811,12.141 16.786,12.220 C16.864,12.282 16.935,12.350 17.006,12.418 C17.044,12.454 17.080,12.492 17.116,12.530 C17.159,12.576 17.201,12.623 17.241,12.671 C17.278,12.714 17.313,12.758 17.347,12.803 C17.381,12.848 17.413,12.895 17.445,12.942 C17.479,12.993 17.513,13.044 17.544,13.096 C17.570,13.141 17.594,13.186 17.618,13.231 C17.649,13.288 17.679,13.346 17.705,13.404 C17.726,13.449 17.744,13.495 17.762,13.540 C17.787,13.601 17.811,13.662 17.832,13.724 C17.848,13.773 17.861,13.823 17.875,13.873 C17.892,13.933 17.910,13.993 17.924,14.054 C17.938,14.116 17.946,14.179 17.956,14.243 C17.964,14.293 17.975,14.342 17.980,14.393 C17.993,14.509 18.000,14.625 18.000,14.742 C18.000,16.538 16.517,17.999 14.694,17.999 ZM11.648,2.760 C11.576,2.830 11.482,2.865 11.388,2.865 C11.294,2.865 11.200,2.830 11.128,2.760 C10.985,2.619 10.985,2.391 11.128,2.250 L11.863,1.528 C12.006,1.388 12.239,1.388 12.382,1.528 C12.526,1.669 12.526,1.898 12.382,2.038 L11.648,2.760 ZM9.919,5.028 C7.585,5.028 5.528,6.606 4.943,8.811 C4.288,8.990 3.698,9.299 3.198,9.704 C2.578,8.913 2.204,7.926 2.204,6.852 C2.204,4.267 4.346,2.164 6.980,2.164 C9.047,2.164 10.807,3.463 11.470,5.272 C10.973,5.114 10.450,5.028 9.919,5.028 ZM6.980,1.442 C6.777,1.442 6.612,1.281 6.612,1.082 L6.612,0.361 C6.612,0.161 6.777,-0.000 6.980,-0.000 C7.183,-0.000 7.347,0.161 7.347,0.361 L7.347,1.082 C7.347,1.281 7.183,1.442 6.980,1.442 ZM2.572,2.865 C2.478,2.865 2.384,2.830 2.312,2.760 L1.577,2.038 C1.434,1.898 1.434,1.669 1.577,1.528 C1.721,1.388 1.953,1.388 2.097,1.528 L2.831,2.250 C2.975,2.391 2.975,2.619 2.831,2.760 C2.760,2.830 2.666,2.865 2.572,2.865 ZM1.102,7.213 L0.367,7.213 C0.164,7.213 -0.000,7.051 -0.000,6.852 C-0.000,6.653 0.164,6.492 0.367,6.492 L1.102,6.492 C1.305,6.492 1.469,6.653 1.469,6.852 C1.469,7.051 1.305,7.213 1.102,7.213 Z"/>
</svg>
