<?xml version="1.0" encoding="utf-8"?>
<!-- Generator: Adobe Illustrator 19.2.1, SVG Export Plug-In . SVG Version: 6.00 Build 0)  -->
<svg version="1.1" id="Layer_1" xmlns="http://www.w3.org/2000/svg" xmlns:xlink="http://www.w3.org/1999/xlink" x="0px" y="0px"
	 viewBox="0 0 24 24" style="enable-background:new 0 0 24 24;" xml:space="preserve">
<style type="text/css">
	.st0{fill:#ffffff;}
	.st1{fill:none;stroke:#ffffff;stroke-width:0.75;stroke-miterlimit:10;}
	.st2{fill:#ffffff;}
</style>
<g>
	<ellipse transform="matrix(0.733 -0.6803 0.6803 0.733 -11.2135 5.4193)" class="st0" cx="1.3" cy="17" rx="1.1" ry="1.1"/>
	<ellipse transform="matrix(0.733 -0.6803 0.6803 0.733 -5.4331 20.145)" class="st0" cx="22.9" cy="17" rx="1.1" ry="1.1"/>
</g>
<ellipse transform="matrix(0.733 -0.6803 0.6803 0.733 -12.327 14.3537)" class="st0" cx="12.1" cy="22.9" rx="1.1" ry="1.1"/>
<path class="st1" d="M17,12c3.5,0.9,6,2.9,6,5.1c0,3.2-4.8,5.7-10.8,5.7S1.3,20.3,1.3,17.1c0-2.2,2.3-4.1,5.6-5"/>
<path class="st2" d="M12.1,0.2c-3,0-6.1,1-6.1,3v14.5c0,2,3.1,3,6.1,3s6.1-1,6.1-3V3.2C18.2,1.2,15.1,0.2,12.1,0.2z M12.8,17.4h-1.3
	v-1.3h1.3V17.4z M12.8,15.6h-1.3v-1.3h1.3V15.6z M12.8,13.8h-1.3v-1.3h1.3V13.8z M14.3,12l-1.5-1.5V12h-1.3v-1.5L10,12L9,11l3.1-3.1
	l3.1,3.1L14.3,12z M12.1,4.8c-2.8,0-4.6-1-4.6-1.5s1.7-1.5,4.6-1.5c2.8,0,4.6,1,4.6,1.5S14.9,4.8,12.1,4.8z"/>
</svg>
