<?xml version="1.0" encoding="utf-8"?>
<!-- Generator: Adobe Illustrator 20.1.0, SVG Export Plug-In . SVG Version: 6.00 Build 0)  -->
<svg version="1.1" id="fit_waypoints" xmlns="http://www.w3.org/2000/svg" xmlns:xlink="http://www.w3.org/1999/xlink" x="0px"
	 y="0px" viewBox="0 0 25.1 25.1" style="enable-background:new 0 0 25.1 25.1;" xml:space="preserve">
<g id="outside_Bracket">
	<polygon style="fill:#FFFFFF;" points="0,8 0,0 8,0 8,1.8 1.8,1.8 1.8,8 	"/>
	<polygon style="fill:#FFFFFF;" points="23.3,8 23.3,1.8 17.1,1.8 17.1,0 25.1,0 25.1,8 	"/>
	<polygon style="fill:#FFFFFF;" points="17.1,25.1 17.1,23.3 23.3,23.3 23.3,17.1 25.1,17.1 25.1,25.1 	"/>
	<polygon style="fill:#FFFFFF;" points="0,25.1 0,17.1 1.8,17.1 1.8,23.3 8,23.3 8,25.1 	"/>
</g>
<line style="fill:none;stroke:#FFFFFF;stroke-miterlimit:10;" x1="15" y1="7" x2="18.2" y2="10.2"/>
<line style="fill:none;stroke:#FFFFFF;stroke-miterlimit:10;" x1="7" y1="15" x2="10.2" y2="18.2"/>
<line style="fill:none;stroke:#FFFFFF;stroke-miterlimit:10;" x1="18.2" y1="15" x2="15" y2="18.2"/>
<line style="fill:none;stroke:#FFFFFF;stroke-miterlimit:10;" x1="10.2" y1="7" x2="7" y2="10.2"/>
<g id="waypoints">
	<g>
		
			<rect x="18.8" y="10.8" transform="matrix(0.7071 0.7071 -0.7071 0.7071 14.9108 -10.8768)" style="fill:#FFFFFF;" width="3.5" height="3.5"/>
		
			<rect x="10.8" y="2.8" transform="matrix(0.7071 0.7071 -0.7071 0.7071 6.8865 -7.553)" style="fill:#FFFFFF;" width="3.5" height="3.5"/>
		
			<rect x="2.8" y="10.8" transform="matrix(0.7071 0.7071 -0.7071 0.7071 10.2103 0.4713)" style="fill:#FFFFFF;" width="3.5" height="3.5"/>
		
			<rect x="10.8" y="18.8" transform="matrix(0.7071 0.7071 -0.7071 0.7071 18.2346 -2.8525)" style="fill:#FFFFFF;" width="3.5" height="3.5"/>
	</g>
</g>
</svg>
