<?xml version="1.0" encoding="utf-8"?>
<!-- Generator: Adobe Illustrator 20.1.0, SVG Export Plug-In . SVG Version: 6.00 Build 0)  -->
<svg version="1.1" id="Layer_1" xmlns="http://www.w3.org/2000/svg" xmlns:xlink="http://www.w3.org/1999/xlink" x="0px" y="0px"
	 viewBox="0 0 25.1 25.1" xml:space="preserve">
<g>
	<g>
		<polygon style="fill:#FFFFFF;" points="5.4,9.7 6.3,8.1 7.1,8.8 6.1,10.4"/>
		<polygon style="fill:#FFFFFF;" points="6.1,14.7 7.1,16.3 6.3,17.1 5.4,15.4"/>
	</g>
	<g>
		<defs>
			
				<rect id="SVGID_1_" x="15" y="17.5" transform="matrix(0.7071 -0.7071 0.7071 0.7071 -8.6869 17.4968)" width="3.5" height="3.5"/>
		</defs>
		<use xlink:href="#SVGID_1_"  style="overflow:visible;fill-rule:evenodd;clip-rule:evenodd;fill:#FFFFFF;"/>
		<clipPath id="SVGID_2_">
			<use xlink:href="#SVGID_1_"  style="overflow:visible;"/>
		</clipPath>
		<g style="clip-path:url(#SVGID_2_);">
			<defs>
				<rect id="SVGID_3_" x="-84" y="-10.4" width="134.9" height="84.4"/>
			</defs>
			<use xlink:href="#SVGID_3_"  style="overflow:visible;fill:#FFFFFF;"/>
			<clipPath id="SVGID_4_">
				<use xlink:href="#SVGID_3_"  style="overflow:visible;"/>
			</clipPath>
			
				<rect x="15" y="17.5" transform="matrix(0.7071 -0.7071 0.7071 0.7071 -8.6869 17.4968)" style="clip-path:url(#SVGID_4_);fill:#FFFFFF;" width="3.5" height="3.5"/>
		</g>
	</g>
	<g>
		<defs>
			<rect id="SVGID_5_" x="15" y="4.1" transform="matrix(0.7071 -0.7071 0.7071 0.7071 0.788 13.5722)" width="3.5" height="3.5"/>
		</defs>
		<use xlink:href="#SVGID_5_"  style="overflow:visible;fill-rule:evenodd;clip-rule:evenodd;fill:#FFFFFF;"/>
		<clipPath id="SVGID_6_">
			<use xlink:href="#SVGID_5_"  style="overflow:visible;"/>
		</clipPath>
		<g style="clip-path:url(#SVGID_6_);">
			<defs>
				<rect id="SVGID_7_" x="-84" y="-22.2" width="134.9" height="84.4"/>
			</defs>
			<use xlink:href="#SVGID_7_"  style="overflow:visible;fill:#FFFFFF;"/>
			<clipPath id="SVGID_8_">
				<use xlink:href="#SVGID_7_"  style="overflow:visible;"/>
			</clipPath>
			
				<rect x="15" y="4.1" transform="matrix(0.7071 -0.7071 0.7071 0.7071 0.788 13.5722)" style="clip-path:url(#SVGID_8_);fill:#FFFFFF;" width="3.5" height="3.5"/>
		</g>
	</g>
	<g>
		<defs>
			
				<rect id="SVGID_9_" x="6.4" y="17.6" transform="matrix(0.7071 -0.7071 0.7071 0.7071 -11.2642 11.3785)" width="3.5" height="3.5"/>
		</defs>
		<use xlink:href="#SVGID_9_"  style="overflow:visible;fill-rule:evenodd;clip-rule:evenodd;fill:#FFFFFF;"/>
		<clipPath id="SVGID_10_">
			<use xlink:href="#SVGID_9_"  style="overflow:visible;"/>
		</clipPath>
		<g style="clip-path:url(#SVGID_10_);">
			<defs>
				<rect id="SVGID_11_" x="-92.7" y="-10.3" width="134.9" height="84.4"/>
			</defs>
			<use xlink:href="#SVGID_11_"  style="overflow:visible;fill:#FFFFFF;"/>
			<clipPath id="SVGID_12_">
				<use xlink:href="#SVGID_11_"  style="overflow:visible;"/>
			</clipPath>
			
				<rect x="6.4" y="17.6" transform="matrix(0.7071 -0.7071 0.7071 0.7071 -11.2642 11.3785)" style="clip-path:url(#SVGID_12_);fill:#FFFFFF;" width="3.5" height="3.5"/>
		</g>
	</g>
	<g>
		<defs>
			
				<rect id="SVGID_13_" x="19.1" y="10.8" transform="matrix(0.7071 -0.7071 0.7071 0.7071 -2.7937 18.3767)" width="3.5" height="3.5"/>
		</defs>
		<use xlink:href="#SVGID_13_"  style="overflow:visible;fill-rule:evenodd;clip-rule:evenodd;fill:#FFFFFF;"/>
		<clipPath id="SVGID_14_">
			<use xlink:href="#SVGID_13_"  style="overflow:visible;"/>
		</clipPath>
		<g style="clip-path:url(#SVGID_14_);">
			<defs>
				<rect id="SVGID_15_" x="-81.7" y="-16.3" width="134.9" height="84.4"/>
			</defs>
			<use xlink:href="#SVGID_15_"  style="overflow:visible;fill:#FFFFFF;"/>
			<clipPath id="SVGID_16_">
				<use xlink:href="#SVGID_15_"  style="overflow:visible;"/>
			</clipPath>
			
				<rect x="19.1" y="10.8" transform="matrix(0.7071 -0.7071 0.7071 0.7071 -2.7937 18.3767)" style="clip-path:url(#SVGID_16_);fill:#FFFFFF;" width="3.5" height="3.5"/>
		</g>
	</g>
	<g>
		<defs>
			
				<rect id="SVGID_17_" x="2.6" y="10.8" transform="matrix(0.7071 -0.7071 0.7071 0.7071 -7.6118 6.7447)" width="3.5" height="3.5"/>
		</defs>
		<use xlink:href="#SVGID_17_"  style="overflow:visible;fill-rule:evenodd;clip-rule:evenodd;fill:#FFFFFF;"/>
		<clipPath id="SVGID_18_">
			<use xlink:href="#SVGID_17_"  style="overflow:visible;"/>
		</clipPath>
		<g style="clip-path:url(#SVGID_18_);">
			<defs>
				<rect id="SVGID_19_" x="-94.9" y="-16.3" width="134.9" height="84.4"/>
			</defs>
			<use xlink:href="#SVGID_19_"  style="overflow:visible;fill:#FFFFFF;"/>
			<clipPath id="SVGID_20_">
				<use xlink:href="#SVGID_19_"  style="overflow:visible;"/>
			</clipPath>
			
				<rect x="2.6" y="10.8" transform="matrix(0.7071 -0.7071 0.7071 0.7071 -7.6118 6.7447)" style="clip-path:url(#SVGID_20_);fill:#FFFFFF;" width="3.5" height="3.5"/>
		</g>
	</g>
	<g>
		<defs>
			
				<rect id="SVGID_21_" x="6.3" y="4.1" transform="matrix(0.7071 -0.7071 0.7071 0.7071 -1.7601 7.4203)" width="3.5" height="3.5"/>
		</defs>
		<use xlink:href="#SVGID_21_"  style="overflow:visible;fill-rule:evenodd;clip-rule:evenodd;fill:#FFFFFF;"/>
		<clipPath id="SVGID_22_">
			<use xlink:href="#SVGID_21_"  style="overflow:visible;"/>
		</clipPath>
		<g style="clip-path:url(#SVGID_22_);">
			<defs>
				<rect id="SVGID_23_" x="-92.7" y="-22.2" width="134.9" height="84.4"/>
			</defs>
			<use xlink:href="#SVGID_23_"  style="overflow:visible;fill:#FFFFFF;"/>
			<clipPath id="SVGID_24_">
				<use xlink:href="#SVGID_23_"  style="overflow:visible;"/>
			</clipPath>
			
				<rect x="6.3" y="4.1" transform="matrix(0.7071 -0.7071 0.7071 0.7071 -1.7602 7.4203)" style="clip-path:url(#SVGID_24_);fill:#FFFFFF;" width="3.5" height="3.5"/>
		</g>
	</g>
	<rect x="11.6" y="18.8" style="fill:#FFFFFF;" width="1.9" height="1"/>
	<rect x="11.6" y="5.3" style="fill:#FFFFFF;" width="1.9" height="1"/>
	<g>
		<polygon style="fill:#FFFFFF;" points="0,8 0,0 8,0 8,1.8 1.8,1.8 1.8,8 		"/>
		<polygon style="fill:#FFFFFF;" points="23.3,8 23.3,1.8 17.1,1.8 17.1,0 25.1,0 25.1,8 		"/>
		<polygon style="fill:#FFFFFF;" points="17.1,25.1 17.1,23.3 23.3,23.3 23.3,17.1 25.1,17.1 25.1,25.1 		"/>
		<g>
			<polygon style="fill:#FFFFFF;" points="0,25.1 0,17.1 1.8,17.1 1.8,23.3 8,23.3 8,25.1 			"/>
		</g>
	</g>
	<g>
		<polygon style="fill:#FFFFFF;" points="19.7,9.7 18.8,8.1 18,8.8 19,10.4 		"/>
		<polygon style="fill:#FFFFFF;" points="19,14.7 18,16.3 18.8,17.1 19.7,15.4 		"/>
	</g>
</g>
</svg>
