<?xml version="1.0" encoding="utf-8"?>
<!-- Generator: Adobe Illustrator 20.1.0, SVG Export Plug-In . SVG Version: 6.00 Build 0)  -->
<svg version="1.1" id="Layer_1" xmlns="http://www.w3.org/2000/svg" xmlns:xlink="http://www.w3.org/1999/xlink" x="0px" y="0px"
	 viewBox="0 0 17.6 24" style="enable-background:new 0 0 17.6 24;" xml:space="preserve">
<g>
	<path style="fill:#FFFFFF;" d="M17.3,0h-17C0.1,0,0,0.1,0,0.3v13c0,0.2,0.1,0.3,0.3,0.3h17c0.2,0,0.3-0.1,0.3-0.3v-13
		C17.6,0.1,17.5,0,17.3,0z M15.9,11.3l-3.8-3.9c0,0-0.1,0-0.2,0L9.3,9.7L5.9,5.7c0,0-0.1,0-0.1,0c0,0-0.1,0-0.1,0l-4,5.2V1.6h14.3
		V11.3z"/>
	<path style="fill:#FFFFFF;" d="M12.6,5.8c1,0,1.8-0.8,1.8-1.7s-0.8-1.7-1.8-1.7c-1,0-1.8,0.8-1.8,1.7S11.6,5.8,12.6,5.8z"/>
</g>
<g>
	<polygon style="fill:#FFFFFF;" points="8.9,24 6,19.7 11.8,19.7 	"/>
	
		<rect x="8.2" y="14.7" transform="matrix(-1 -1.224647e-16 1.224647e-16 -1 17.7801 35.0478)" style="fill:#FFFFFF;" width="1.5" height="5.6"/>
</g>
</svg>
