<?xml version="1.0" encoding="utf-8"?>
<!-- Generator: Adobe Illustrator 20.1.0, SVG Export Plug-In . SVG Version: 6.00 Build 0)  -->
<svg version="1.1" id="Layer_1" xmlns="http://www.w3.org/2000/svg" xmlns:xlink="http://www.w3.org/1999/xlink" x="0px" y="0px"
	 viewBox="0 0 24.6 24.6" style="enable-background:new 0 0 24.6 24.6;" xml:space="preserve">
<path style="fill:#FFFFFF;" d="M12.3,1.6C18.2,1.6,23,6.4,23,12.3C23,18.2,18.2,23,12.3,23C6.4,23,1.6,18.2,1.6,12.3
	C1.6,6.4,6.4,1.6,12.3,1.6 M12.3,0C5.5,0,0,5.5,0,12.3c0,6.8,5.5,12.3,12.3,12.3s12.3-5.5,12.3-12.3C24.6,5.5,19.1,0,12.3,0L12.3,0z
	"/>
<g>
	<defs>
		<path id="SVGID_3_" d="M20.6,12.3L20.6,12.3c0,4.5-3.7,8.3-8.3,8.3h0c-4.5,0-8.3-3.7-8.3-8.3S7.8,4,12.3,4h0
			C16.9,4,20.6,7.8,20.6,12.3"/>
	</defs>
	<clipPath id="SVGID_2_">
		<use xlink:href="#SVGID_3_"  style="overflow:visible;"/>
	</clipPath>
	<rect x="-8.4" y="-8.4" style="clip-path:url(#SVGID_2_);fill:#FF0000;" width="41.4" height="41.4"/>
</g>
</svg>
