<?xml version="1.0" encoding="utf-8"?>
<!-- Generator: Adobe Illustrator 20.1.0, SVG Export Plug-In . SVG Version: 6.00 Build 0)  -->
<svg version="1.1" xmlns="http://www.w3.org/2000/svg" xmlns:xlink="http://www.w3.org/1999/xlink" x="0px" y="0px"
	 viewBox="0 0 24.6 24.6" style="enable-background:new 0 0 24.6 24.6;" xml:space="preserve">
<g id="Layer_1">
	<path style="fill:#FFFFFF;" d="M12.3,1.6C18.2,1.6,23,6.4,23,12.3C23,18.2,18.2,23,12.3,23C6.4,23,1.6,18.2,1.6,12.3
		C1.6,6.4,6.4,1.6,12.3,1.6 M12.3,0C5.5,0,0,5.5,0,12.3c0,6.8,5.5,12.3,12.3,12.3s12.3-5.5,12.3-12.3C24.6,5.5,19.1,0,12.3,0L12.3,0
		z"/>
</g>
<g id="Layer_2">
</g>
<g id="Layer_3">
	<path style="fill:#FFFFFF;" d="M11.5,8.9l8.3,0c-1.1-2.3-3.1-4-5.6-4.5L11.5,8.9z"/>
	<path style="fill:#FFFFFF;" d="M13.2,15.8H4.8c1.1,2.3,3.2,4,5.7,4.6L13.2,15.8z"/>
	<path style="fill:#FFFFFF;" d="M8.8,11.4l4.3-7.2c-0.3,0-0.5,0-0.8,0c-2.5,0-4.7,1-6.2,2.8L8.8,11.4z"/>
	<path style="fill:#FFFFFF;" d="M14.9,9.8l4.2,7.3c0.9-1.3,1.5-3,1.5-4.7c0-0.9-0.1-1.7-0.4-2.5C20.1,9.8,14.9,9.8,14.9,9.8z"/>
	<path style="fill:#FFFFFF;" d="M15.7,13.3l-4.1,7.3c0.2,0,0.5,0,0.7,0c2.4,0,4.6-1.1,6.1-2.7L15.7,13.3z"/>
	<path style="fill:#FFFFFF;" d="M9.7,14.9L5.5,7.6C4.6,8.9,4,10.6,4,12.3c0,0.9,0.1,1.7,0.4,2.5C4.4,14.9,9.7,14.9,9.7,14.9z"/>
</g>
<g id="Layer_6" style="display:none;">
	<circle style="display:inline;fill:none;stroke:#000000;stroke-miterlimit:10;" cx="12.3" cy="12.3" r="8.3"/>
</g>
</svg>
