<?xml version="1.0" encoding="utf-8"?>
<!-- Generator: Adobe Illustrator 20.1.0, SVG Export Plug-In . SVG Version: 6.00 Build 0)  -->
<svg version="1.1" id="Layer_1" xmlns="http://www.w3.org/2000/svg" xmlns:xlink="http://www.w3.org/1999/xlink" x="0px" y="0px"
	 viewBox="0 0 29.6 29.6" style="enable-background:new 0 0 29.6 29.6;" xml:space="preserve">
<style type="text/css">
	.tc-st0{fill:#FFFFFF;}
</style>
<g>
	<polygon class="tc-st0" points="17,14.8 21.1,10.9 21.1,18.6 	"/>
	<path class="tc-st0" d="M17.2,19.4H9c-0.3,0-0.5-0.2-0.5-0.5v-8.2c0-0.3,0.2-0.5,0.5-0.5h8.2c0.3,0,0.5,0.2,0.5,0.5v8.2
		C17.7,19.2,17.5,19.4,17.2,19.4z"/>
</g>
<path class="tc-st0" d="M14.8,27.2C8,27.2,2.4,21.7,2.4,14.9S8,2.5,14.8,2.5c6.8,0,12.4,5.5,12.4,12.4S21.6,27.2,14.8,27.2z M14.8,4.2
	C8.9,4.2,4.2,9,4.2,14.9s4.8,10.6,10.6,10.6s10.6-4.8,10.6-10.6S20.6,4.2,14.8,4.2z"/>
<rect x="13.9" class="tc-st0" width="1.8" height="5.6"/>
<rect x="13.9" y="23.9" class="tc-st0" width="1.8" height="5.6"/>
<rect y="13.9" class="tc-st0" width="5.6" height="1.8"/>
<rect x="23.9" y="13.9" class="tc-st0" width="5.6" height="1.8"/>
</svg>
