<?xml version="1.0" encoding="utf-8"?>
<!-- Generator: Adobe Illustrator 20.1.0, SVG Export Plug-In . SVG Version: 6.00 Build 0)  -->
<svg version="1.1" id="Layer_1" xmlns="http://www.w3.org/2000/svg" xmlns:xlink="http://www.w3.org/1999/xlink" x="0px" y="0px"
	 viewBox="0 0 26.4 26.7" style="enable-background:new 0 0 26.4 26.7;" xml:space="preserve">
<style type="text/css">
	.st0{fill:#FFFFFF;}
</style>
<path class="st0" d="M26.4,25l-4.7-4.7c4.1-4.9,3.9-12.2-0.7-16.7c-4.8-4.8-12.7-4.8-17.5,0c-4.8,4.8-4.8,12.7,0,17.5
	c4.5,4.5,11.6,4.8,16.5,0.9l4.7,4.7L26.4,25z M4.9,19.9c-4.1-4.1-4.1-10.9,0-15s10.9-4.1,15,0c4.1,4.1,4.1,10.9,0,15S9,24,4.9,19.9z
	"/>
<polygon class="st0" points="11.1,18.3 11.1,13.4 6.2,13.4 6.2,11 11.1,11 11.1,6.1 13.5,6.1 13.5,11 18.4,11 18.4,13.4 13.5,13.4 
	13.5,18.3 "/>
</svg>
