<svg version="1.1" xmlns="http://www.w3.org/2000/svg" xmlns:xlink="http://www.w3.org/1999/xlink" x="0px" y="0px"
	 viewBox="0 0 24 24" style="enable-background:new 0 0 24 24;" xml:space="preserve">
<g>
	<path d="M23.6,7.8l-2.1-2.1L22.3,5c1-1,1-2.7,0-3.7c-1-1-2.7-1-3.7,0L16,3.8L21,8.7l-2.6,2.6l1.7,1.7l3.5-3.5
		C24.1,9.1,24.1,8.3,23.6,7.8z"/>
	<path d="M18,9.3l-3.7-3.7L2.4,17.4c-0.1,0.1-0.2,0.2-0.2,0.3l-2,4C0,22.2,0,22.8,0.4,23.1c0.4,0.4,1,0.5,1.4,0.2l4-2
		c0.1-0.1,0.2-0.1,0.3-0.2L18,9.3z"/>
</g>
</svg>
