<svg xmlns="http://www.w3.org/2000/svg" xmlns:xlink="http://www.w3.org/1999/xlink" preserveAspectRatio="xMidYMid" width="8.969" height="10" viewBox="0 0 8.969 10">
  <path d="M5.240,4.987 L8.836,9.098 C9.016,9.304 9.016,9.638 8.836,9.844 C8.745,9.947 8.627,9.998 8.509,9.998 C8.391,9.998 8.273,9.947 8.183,9.844 L4.261,5.360 C4.081,5.154 4.081,4.820 4.261,4.614 L8.183,0.130 C8.363,-0.076 8.655,-0.076 8.836,0.130 C9.016,0.336 9.016,0.670 8.836,0.876 L5.240,4.987 ZM1.086,4.987 L4.682,9.098 C4.862,9.304 4.862,9.638 4.682,9.844 C4.591,9.947 4.473,9.998 4.355,9.998 C4.237,9.998 4.119,9.947 4.029,9.844 L0.107,5.360 C-0.073,5.154 -0.073,4.820 0.107,4.614 L4.029,0.130 C4.209,-0.076 4.501,-0.076 4.682,0.130 C4.862,0.336 4.862,0.670 4.682,0.876 L1.086,4.987 Z"/>
</svg>
