<svg xmlns="http://www.w3.org/2000/svg" xmlns:xlink="http://www.w3.org/1999/xlink" preserveAspectRatio="xMidYMid" width="48" height="44" viewBox="0 0 48 44">
  <defs>
    <style>
      .cls-1 {
        fill: #c2c3c4;
        fill-rule: evenodd;
      }
    </style>
  </defs>
  <path d="M47.000,43.992 L1.000,43.992 C0.447,43.992 -0.000,43.548 -0.000,43.000 C-0.000,42.451 0.447,42.008 1.000,42.008 L47.000,42.008 C47.553,42.008 48.000,42.451 48.000,43.000 C48.000,43.548 47.553,43.992 47.000,43.992 ZM36.414,27.128 L19.000,9.853 L27.465,1.456 C28.406,0.523 29.661,0.008 31.000,0.008 C32.339,0.008 33.594,0.523 34.535,1.456 L44.879,11.717 C46.828,13.651 46.828,16.797 44.879,18.731 L36.414,27.128 ZM26.535,36.928 C24.785,38.663 21.476,40.024 19.000,40.024 L15.000,40.024 C12.525,40.024 9.215,38.663 7.465,36.928 L3.121,32.619 C2.180,31.685 1.661,30.440 1.661,29.112 C1.661,27.784 2.180,26.539 3.121,25.605 L17.586,11.256 L35.000,28.531 L26.535,36.928 Z" class="cls-1"/>
</svg>
