<svg version="1.1" id="Layer_1" xmlns="http://www.w3.org/2000/svg" xmlns:xlink="http://www.w3.org/1999/xlink" x="0px" y="0px"
	 viewBox="0 0 24 24" style="enable-background:new 0 0 24 24;" xml:space="preserve">
<g>
	<polygon points="22.4,0.1 19.1,3.5 19.1,0.8 17.1,0.8 17.1,6.9 23.2,6.9 23.2,4.9 20.5,4.9 23.9,1.6 	"/>
	<path d="M12,6.9c-2.8,0-5.1,2.3-5.1,5.1c0,2.8,2.3,5.1,5.1,5.1s5.1-2.3,5.1-5.1C17.1,9.2,14.8,6.9,12,6.9z M12,15
		c-1.7,0-3-1.4-3-3c0-1.7,1.4-3,3-3s3,1.4,3,3C15,13.7,13.7,15,12,15z"/>
	<polygon points="0.8,19.1 3.5,19.1 0.1,22.4 1.6,23.9 4.9,20.5 4.9,23.2 6.9,23.2 6.9,17.1 0.8,17.1 	"/>
</g>
</svg>
