<?xml version="1.0" encoding="utf-8"?>
<!-- Generator: Adobe Illustrator 20.0.0, SVG Export Plug-In . SVG Version: 6.00 Build 0)  -->
<svg version="1.1" id="Layer_1" xmlns="http://www.w3.org/2000/svg" xmlns:xlink="http://www.w3.org/1999/xlink" x="0px" y="0px"
	 viewBox="0 0 13.1 7.4" style="enable-background:new 0 0 13.1 7.4;" xml:space="preserve">
<style type="text/css">
	.eyeball-st0{fill:#FFFFFF;}
</style>
<path class="eyeball-st0" d="M13.1,3.7C13.1,3.7,13.1,3.7,13.1,3.7C13.1,3.7,13.1,3.7,13.1,3.7C13.1,3.7,13.1,3.7,13.1,3.7
	C13.1,3.6,13.1,3.6,13.1,3.7C13.1,3.6,13.1,3.6,13.1,3.7c0-0.2-0.1-0.2-0.1-0.3c-0.4-0.5-0.9-0.9-1.4-1.3c-1.1-0.9-2.3-1.6-3.7-1.9
	C7.1,0,6.2,0,5.4,0.1C4.7,0.2,4,0.5,3.4,0.8c-1,0.5-2,1.2-2.8,2.1C0.4,3,0.3,3.2,0.1,3.4C0,3.6,0,3.8,0.1,4.1C0.6,4.6,1.1,5,1.6,5.4
	C2.7,6.3,3.9,7,5.3,7.3c0.8,0.2,1.6,0.2,2.4,0c0.7-0.1,1.4-0.4,2.1-0.7c1-0.5,2-1.2,2.8-2.1c0.2-0.2,0.3-0.3,0.4-0.5
	c0.1-0.1,0.1-0.2,0.1-0.3C13.1,3.8,13.1,3.8,13.1,3.7C13.1,3.8,13.1,3.8,13.1,3.7C13.1,3.8,13.1,3.8,13.1,3.7
	C13.1,3.8,13.1,3.8,13.1,3.7C13.1,3.7,13.1,3.7,13.1,3.7C13.1,3.7,13.1,3.7,13.1,3.7C13.1,3.7,13.1,3.7,13.1,3.7z M6.6,6.2
	C5.2,6.2,4,5.1,4,3.7c0-1.4,1.1-2.5,2.5-2.5s2.5,1.1,2.5,2.5S8,6.2,6.6,6.2z"/>
<circle class="eyeball-st0" cx="6.6" cy="3.7" r="0.8"/>
</svg>
