<?xml version="1.0" encoding="utf-8"?>
<!-- Generator: Adobe Illustrator 20.1.0, SVG Export Plug-In . SVG Version: 6.00 Build 0)  -->
<svg version="1.1" id="Layer_1" xmlns="http://www.w3.org/2000/svg" xmlns:xlink="http://www.w3.org/1999/xlink" x="0px" y="0px"
	 viewBox="0 0 19 19" style="enable-background:new 0 0 19 19;" xml:space="preserve">
<style type="text/css">
	.history-st0{fill:#FFFFFF;}
</style>
<g>
	<path class="history-st0" d="M18.9,8.3c-0.5-4.2-4-7.7-8.2-8.2C7.6-0.3,4.4,0.9,2.4,3.2C2,3.6,1.7,4,1.4,4.5L0,3.7l0.3,4.8l4.3-2.1L3.6,5.7
		C3.8,5.4,4,5.1,4.2,4.9c1.3-1.5,3.3-2.4,5.3-2.4c0.3,0,0.6,0,0.9,0.1c3.1,0.4,5.7,2.9,6.1,6c0.3,2.1-0.3,4-1.7,5.6
		c-1.5,1.7-3.9,2.6-6.2,2.3c-3.1-0.4-5.7-2.9-6.1-6c0-0.3-0.1-0.6-0.1-0.9l-2.4,1.3c0.6,4.2,4,7.6,8.2,8.1C8.7,19,9.1,19,9.5,19
		c2.7,0,5.3-1.2,7.1-3.2C18.4,13.7,19.3,11,18.9,8.3z"/>
	<path class="history-st0" d="M13.1,5L9.8,8.3c-0.1,0-0.2,0-0.4,0c-0.1,0-0.2,0-0.4,0L7.2,6.4L6,7.7c0,0,0.9,0.9,1.8,1.8
		c-0.1,0.2-0.1,0.4-0.1,0.6c0,1,0.8,1.8,1.8,1.8c1,0,1.8-0.8,1.8-1.8c0-0.2,0-0.4-0.1-0.5l3.2-3.2L13.1,5z"/>
</g>
</svg>
