<?xml version="1.0" encoding="utf-8"?>
<!-- Generator: Adobe Illustrator 20.1.0, SVG Export Plug-In . SVG Version: 6.00 Build 0)  -->
<svg version="1.1" id="Layer_1" xmlns:sketch="http://www.bohemiancoding.com/sketch/ns"
	 xmlns="http://www.w3.org/2000/svg" xmlns:xlink="http://www.w3.org/1999/xlink" x="0px" y="0px" viewBox="0 0 13 16"
	 style="enable-background:new 0 0 13 16;" xml:space="preserve">
<style type="text/css">
	.trash-st0{fill:#FFFFFF;}
</style>
<g id="Icons_with_numbers">
	<g id="Group" transform="translate(-336.000000, -192.000000)">
		<path id="Rectangle_159" class="trash-st0" d="M347,195h2v1h-1v11c0,0.6-0.4,1-1,1h-9c-0.6,0-1-0.4-1-1v-11h-1v-1h2h0l0,0v-2
			c0-0.6,0.4-1,1-1h7c0.6,0,1,0.5,1,1L347,195L347,195z M339,194v1h7v-1c0-0.6-0.4-1-1-1h-5C339.4,193,339,193.4,339,194z M338,196
			v11h9v-11H338z M340,197h1v9h-1V197z M342,197h1v9h-1V197z M344,197v9h1v-9H344z"/>
	</g>
</g>
</svg>
