<svg version="1.1" id="Layer_1" xmlns="http://www.w3.org/2000/svg" xmlns:xlink="http://www.w3.org/1999/xlink" x="0px" y="0px"
	 viewBox="0 0 24 24" style="enable-background:new 0 0 24 24;" xml:space="preserve">
<g>
	<path d="M12,0.1C5.5,0.1,0.1,5.5,0.1,12S5.5,23.9,12,23.9S23.9,18.5,23.9,12S18.5,0.1,12,0.1z M12,21.9
		c-5.5,0-9.9-4.4-9.9-9.9S6.5,2.1,12,2.1s9.9,4.4,9.9,9.9S17.5,21.9,12,21.9z"/>
	<path d="M12,4.1c-4.3,0-7.9,3.5-7.9,7.9c0,4.3,3.5,7.9,7.9,7.9s7.9-3.5,7.9-7.9C19.9,7.7,16.3,4.1,12,4.1z M14.6,15.7
		L14.6,15.7h-1.8h0L12,12.2l-0.9,3.4l0,0.1h0H9.4h0l-1.7-7h1.7l0.9,3.4l0.8-3.4h0.1h1.7l0.9,3.4l0.8-3.4h1.8L14.6,15.7L14.6,15.7z"
		/>
</g>
</svg>
