<svg xmlns="http://www.w3.org/2000/svg" xmlns:xlink="http://www.w3.org/1999/xlink" preserveAspectRatio="xMidYMid" width="12" height="7" viewBox="0 0 12 7">
  <path d="M11.856,0.790 L6.375,6.778 C6.358,6.802 6.364,6.836 6.342,6.857 C6.243,6.957 6.112,7.000 5.982,6.994 C5.854,6.999 5.725,6.955 5.627,6.857 C5.605,6.836 5.610,6.803 5.594,6.779 L0.113,0.791 C-0.075,0.605 -0.075,0.301 0.113,0.114 C0.299,-0.072 0.601,-0.072 0.788,0.114 L5.984,5.791 L11.181,0.114 C11.368,-0.073 11.670,-0.073 11.856,0.114 C12.043,0.300 12.043,0.604 11.856,0.790 Z" />
</svg>
