<svg version="1.1" id="Layer_1" xmlns="http://www.w3.org/2000/svg" xmlns:xlink="http://www.w3.org/1999/xlink" x="0px" y="0px"
	 viewBox="0 0 24 24" style="enable-background:new 0 0 24 24;" xml:space="preserve">
<g>
	<path d="M12.7,23.5c-0.5,0-1-0.4-1-1c0-0.6,0.4-1.1,1-1.1c0.8-0.1,1.5-0.2,2.2-0.4c0.5-0.2,1.1,0.1,1.3,0.7
		c0.2,0.5-0.1,1.1-0.7,1.3C14.6,23.2,13.7,23.4,12.7,23.5C12.8,23.5,12.8,23.5,12.7,23.5z M8.8,23c-0.1,0-0.2,0-0.3-0.1
		c-0.9-0.3-1.7-0.7-2.5-1.2c-0.5-0.3-0.6-0.9-0.3-1.4C5.9,19.9,6.6,19.7,7,20c0.6,0.4,1.3,0.7,2,0.9c0.5,0.2,0.8,0.8,0.7,1.3
		C9.6,22.7,9.2,23,8.8,23z M18.7,21c-0.3,0-0.6-0.1-0.8-0.4c-0.4-0.4-0.3-1.1,0.1-1.4c0.6-0.5,1.1-1,1.5-1.7c0.3-0.5,1-0.6,1.4-0.2
		c0.5,0.3,0.6,1,0.2,1.4c-0.5,0.7-1.2,1.4-1.9,2C19.2,21,18.9,21,18.7,21z M3.6,19.2c-0.3,0-0.6-0.1-0.8-0.4c-0.5-0.7-1-1.6-1.3-2.4
		c-0.2-0.5,0-1.1,0.6-1.3c0.5-0.2,1.1,0,1.3,0.6c0.3,0.7,0.7,1.4,1.1,2C4.7,18,4.6,18.7,4.2,19C4,19.2,3.8,19.2,3.6,19.2z
		 M22.1,15.6c-0.1,0-0.2,0-0.2,0c-0.6-0.1-0.9-0.7-0.8-1.2c0.2-0.7,0.3-1.5,0.3-2.2c0-0.6,0.5-1,1-1s1,0.4,1,1v0
		c0,0.9-0.1,1.8-0.3,2.7C23,15.3,22.5,15.6,22.1,15.6z M1.6,13.1c-0.6,0-1-0.4-1-1v0c0-0.9,0.1-1.8,0.3-2.7C1,8.8,1.6,8.5,2.1,8.6
		C2.7,8.7,3,9.3,2.9,9.8c-0.2,0.7-0.3,1.5-0.3,2.2C2.6,12.6,2.1,13.1,1.6,13.1z M3.6,7C3.3,7,3.1,6.9,2.9,6.8
		c-0.5-0.3-0.6-1-0.2-1.4c0.5-0.7,1.2-1.4,1.9-2C5,3,5.7,3,6,3.5c0.4,0.4,0.3,1.1-0.1,1.4C5.3,5.4,4.8,6,4.4,6.6
		C4.2,6.9,3.9,7,3.6,7z M17.4,4.2c-0.2,0-0.4,0-0.5-0.2c-0.6-0.4-1.3-0.7-2-0.9C14.3,3,14,2.4,14.2,1.9c0.2-0.5,0.8-0.8,1.3-0.7
		c0.9,0.3,1.7,0.7,2.5,1.2c0.5,0.3,0.6,0.9,0.3,1.4C18.1,4.1,17.8,4.2,17.4,4.2z M8.7,3.2c-0.4,0-0.8-0.3-1-0.7
		C7.6,2,7.9,1.4,8.4,1.2c0.9-0.3,1.8-0.5,2.7-0.5c0.6,0,1.1,0.4,1.1,0.9c0,0.6-0.4,1.1-0.9,1.1c-0.8,0.1-1.5,0.2-2.2,0.4
		C9,3.2,8.8,3.2,8.7,3.2z"/>
	<circle cx="21" cy="6.9" r="2.4"/>
	<circle cx="12" cy="12.1" r="3.6"/>
</g>
</svg>
